<?xml version="1.0" standalone="no"?>
<!DOCTYPE svg PUBLIC "-//W3C//DTD SVG 1.1//EN" "http://www.w3.org/Graphics/SVG/1.1/DTD/svg11.dtd" >
<svg xmlns="http://www.w3.org/2000/svg">
<metadata></metadata>
<defs>
<font id="gokuregular" horiz-adv-x="1067" >
<font-face units-per-em="2048" ascent="1536" descent="-512" />
<missing-glyph horiz-adv-x="368" />
<glyph horiz-adv-x="0" />
<glyph unicode="&#xd;" horiz-adv-x="368" />
<glyph horiz-adv-x="0" />
<glyph horiz-adv-x="0" />
<glyph unicode=" "  horiz-adv-x="368" />
<glyph unicode="&#x09;" horiz-adv-x="368" />
<glyph unicode="&#xa0;" horiz-adv-x="368" />
<glyph unicode="!" horiz-adv-x="532" d="M63 1231q-2 43 13.5 80t43 64.5t65.5 43t81 15.5t81 -15.5t65.5 -43t43 -64.5t13.5 -80q-4 -80 -21.5 -181.5t-44 -234.5t-58.5 -303t-66 -387q-4 -10 -13 -10q-10 0 -10 10q-35 217 -67.5 387t-59.5 303t-44 234.5t-22 181.5zM104 -90q0 68 47 115t115 47t115 -47.5 t47 -114.5q0 -68 -47 -115t-115 -47t-115 47t-47 115z" />
<glyph unicode="&#x22;" horiz-adv-x="864" d="M61 1354q0 66 47.5 114t114.5 48q68 0 115 -48.5t47 -113.5q0 -47 -16.5 -90t-41 -81t-55 -68t-59.5 -48v12q37 43 35 73t-25 40q-68 0 -115 47t-47 115zM479 1354q0 66 47 114t115 48t115 -48.5t47 -113.5q0 -47 -16.5 -90t-41 -81t-55.5 -68t-59 -48v12q37 43 35 73 t-25 40q-68 0 -115 47t-47 115z" />
<glyph unicode="#" d="M61 207l2 14h771l-7 -14h-766zM193 -37l323 1084h14l-323 -1084h-14zM233 786l5 15h768l-5 -15h-768zM541 -37l323 1084h15l-324 -1084h-14z" />
<glyph unicode="$" horiz-adv-x="1038" d="M61 305q0 66 47.5 114t114.5 48q68 0 115 -48t47 -114q0 -78 -57 -125q-16 -14 -31.5 -34.5t-9.5 -49.5q4 -20 24.5 -35.5t52 -26.5t69.5 -16.5t79 -5.5v453q-72 63 -150.5 125.5t-145 130t-111 144.5t-44.5 171q0 102 40 177t104.5 123t144.5 72t162 26v82h14v-82 q113 0 192 -30t124 -63q59 -41 97 -95t38 -118q0 -68 -47 -114.5t-115 -46.5t-115 47t-47 114q0 37 15.5 70t42.5 55q16 14 31.5 35t9.5 49q-4 20 -24.5 36t-52.5 26t-71 16t-78 6v-452q70 -66 150 -128.5t146.5 -130t110.5 -143t44 -170.5q0 -102 -40 -177t-104.5 -123 t-144.5 -71.5t-162 -25.5v-82h-14v82q-113 0 -191.5 29.5t-123.5 60.5q-59 41 -97.5 96.5t-38.5 118.5zM346 1253.5q2 -49.5 35 -110.5q23 -43 56.5 -83t74.5 -79v438q-49 -2 -88 -22.5t-59.5 -57t-18.5 -86zM526 14q49 2 88 22.5t59.5 57.5t19.5 86.5t-34 110.5 q-25 43 -58.5 83t-74.5 79v-439z" />
<glyph unicode="%" horiz-adv-x="1198" d="M61 1051q0 -63 19.5 -118.5t56.5 -97.5t89.5 -66t117.5 -24q66 0 118 24t89 66t56.5 97t19.5 119q0 63 -19.5 119.5t-56.5 97.5t-89 65.5t-118 24.5t-118 -24.5t-89 -65.5t-56.5 -97.5t-19.5 -119.5zM199 0l784 1434h16l-784 -1434h-16zM256 971v80v82q0 113 21.5 164 t66.5 51t66.5 -51.5t21.5 -163.5v-82v-80q0 -113 -21.5 -164t-66.5 -51t-66.5 51t-21.5 164zM571 379q0 -63 19.5 -118.5t56.5 -97.5t89 -65.5t118 -23.5t118 23.5t89 65.5t56.5 97t19.5 119q0 63 -19.5 119.5t-56.5 97.5t-89 65.5t-118 24.5t-118 -24.5t-89 -65.5 t-56.5 -97.5t-19.5 -119.5zM766 299v80v82q0 113 21.5 164t66.5 51t66.5 -51.5t21.5 -163.5v-82v-80q0 -113 -21.5 -164t-66.5 -51t-66.5 51t-21.5 164z" />
<glyph unicode="&#x26;" horiz-adv-x="1570" d="M61 362q0 76 29 141.5t78 115t114.5 78t141.5 28.5h4q-49 88 -79 168t-34 143q-6 106 35 181t108.5 123.5t152.5 71t169 22.5q111 0 190 -30t124 -61q59 -41 97 -96t38 -119q0 -66 -47 -113.5t-115 -47.5q-66 0 -114 48t-48 113q0 39 15.5 71t42.5 54q16 14 31.5 35 t11.5 49q-4 20 -24.5 36t-52.5 26t-71 16t-78 6q-33 0 -64.5 -16t-54 -50t-31.5 -86t7 -126q10 -51 43 -122t83 -154t115.5 -175t143.5 -184q20 27 37 49q20 27 20 59q0 41 -28.5 69t-69.5 28v12h326v-12q-80 0 -145.5 -60.5t-131.5 -152.5q72 -86 152 -169t166 -157 q37 -33 84 -33q33 0 67 21l10 -6q-35 -68 -118.5 -112t-192.5 -44q-80 0 -148.5 25.5t-113.5 66.5q-31 29 -61.5 58.5t-63.5 64.5q-82 -92 -178 -153.5t-209 -61.5q-76 0 -141.5 28.5t-114.5 78t-78 115t-29 140.5zM377 487q0 -63 19.5 -119.5t55 -97.5t87.5 -65.5 t118 -24.5q82 0 146 45q-98 104 -192.5 227t-166.5 244q-68 -86 -67 -209z" />
<glyph unicode="'" horiz-adv-x="446" d="M61 1354q0 66 47.5 114t114.5 48q68 0 115 -48.5t47 -113.5q0 -47 -16.5 -90t-41 -81t-55 -68t-59.5 -48v12q37 43 35 73t-25 40q-68 0 -115 47t-47 115z" />
<glyph unicode="(" horiz-adv-x="559" d="M61 717q0 182 43 333.5t106.5 265.5t133.5 185.5t123 93.5h31l-41 -44t-88 -147.5t-87 -271t-40 -415.5t40 -416t87 -271.5t88 -147.5l41 -44h-31q-53 23 -123 94.5t-133.5 185t-106.5 265.5t-43 334z" />
<glyph unicode=")" horiz-adv-x="559" d="M61 -162l41 44t88.5 147.5t87 271.5t39.5 416t-39.5 415.5t-87 271t-88.5 147.5l-41 44h31q53 -23 123 -94t133.5 -185t106.5 -265.5t43 -333.5t-43 -334t-106.5 -265.5t-133.5 -185t-123 -94.5h-31z" />
<glyph unicode="*" horiz-adv-x="583" d="M63 1190q6 25 31 37q14 8 36 10t46.5 3t51 6t51.5 18q-25 12 -51.5 16t-51 5t-46 3t-36.5 10q-25 12 -31 39q-6 25 7 49q16 25 39 31q25 6 47 -6q14 -8 28.5 -25.5t28.5 -38t31.5 -41t40.5 -34.5q0 27 -9.5 52.5t-20.5 48t-19.5 43t-8.5 36.5q0 25 17 45q18 18 47 19 q29 0 47 -19q18 -18 18 -45q0 -16 -9 -36.5t-19.5 -43t-20.5 -48.5t-10 -52q25 14 42 34.5t31.5 41t27 38t28.5 25.5q23 12 47 6q23 -6 39 -31q12 -25 6 -49q-6 -27 -29 -39q-16 -8 -37.5 -10t-46 -3t-51 -5t-51.5 -16q25 -12 51.5 -17.5t51 -6.5t46 -3t37.5 -10 q23 -12 29 -37q6 -27 -6 -51q-16 -25 -39 -31q-25 -6 -47 6q-16 8 -28.5 25.5t-27 38t-31.5 41t-42 34.5q0 -29 10 -53t20.5 -47t19.5 -43t9 -37q0 -27 -18 -45t-47 -18t-47 18q-16 20 -17 45q0 16 8.5 36.5t19.5 43.5t20.5 47.5t9.5 52.5q-23 -14 -40.5 -34.5t-31.5 -41 t-28.5 -38t-28.5 -25.5q-23 -12 -47 -6q-23 6 -39 31q-12 25 -7 51z" />
<glyph unicode="+" horiz-adv-x="1030" d="M61 498v14h908v-14h-908zM508 51v907h14v-907h-14z" />
<glyph unicode="," horiz-adv-x="446" d="M61 162q0 68 47.5 115t114.5 47q68 0 115 -47.5t47 -114.5q0 -47 -16.5 -90t-41 -81t-55 -66.5t-59.5 -47.5v12q37 41 35 72t-25 39q-68 0 -115 47t-47 115z" />
<glyph unicode="-" horiz-adv-x="704" d="M61 498v14h582v-14h-582z" />
<glyph unicode="." horiz-adv-x="446" d="M61 162q0 68 47.5 115t114.5 47q68 0 115 -47t47 -115t-47 -115t-115 -47t-115 47t-47 115z" />
<glyph unicode="/" horiz-adv-x="747" d="M61 0l609 1434h16l-608 -1434h-17z" />
<glyph unicode="0" horiz-adv-x="1339" d="M61 717q0 184 50.5 319t135.5 223.5t194.5 131.5t228.5 43t228.5 -43t193.5 -131.5t135 -223.5t51 -319t-51 -319.5t-135 -223.5t-194 -131t-228 -43q-119 0 -228.5 43t-194.5 131t-135.5 223t-50.5 320zM449 637q0 -147 5 -263t40 -218q27 -80 72.5 -112t103.5 -32 q55 0 102 32t74 112q33 104 38 218.5t7 262.5v158q-2 150 -7 264.5t-38 218.5q-27 80 -74 111.5t-102 31.5q-57 0 -103.5 -31.5t-72.5 -111.5q-35 -102 -40 -218t-5 -265v-158z" />
<glyph unicode="1" horiz-adv-x="550" d="M61 0v12q23 0 37.5 14.5t14.5 36.5v64v53v125v686v256q0 23 -14.5 37t-37.5 14v13q104 16 204 50t173 73v-453v-672v-182v-64q0 -23 14.5 -37t36.5 -14v-12h-198h-230z" />
<glyph unicode="2" horiz-adv-x="1069" d="M64.5 225.5q7.5 73.5 43 158.5t111.5 173q63 74 135 144.5t136.5 142t113.5 145.5t66 154q14 74 6 126t-30.5 86t-54.5 50t-65 16q-39 0 -77.5 -6t-69.5 -16t-51.5 -25.5t-24.5 -36.5q-6 -29 9.5 -49t31.5 -35q27 -23 42 -54.5t15 -70.5q0 -66 -47 -113.5t-114 -47.5 q-68 0 -115 48t-47 113q0 63 38 119t97 96q45 31 124 61t189 30q82 0 169 -22.5t156 -71t109.5 -123t32.5 -181.5q-6 -86 -45 -150.5t-97 -112.5t-132 -85t-152 -69.5t-154.5 -64.5t-140.5 -71q-100 -59 -140 -130.5t-48 -137.5q29 86 114 134t212 48q37 0 84 -7t97 -15 t100 -15.5t93 -7.5q78 0 136.5 24.5t58.5 78.5h16q2 -8 7.5 -42t4.5 -82t-14.5 -103.5t-44 -102.5t-85 -82t-138.5 -41q-68 -6 -133.5 6t-127 30.5t-115.5 34t-99 15.5q-61 0 -91 -26.5t-34 -59.5h-14q-25 33 -39.5 91.5t-7 132z" />
<glyph unicode="3" horiz-adv-x="1105" d="M61 305q0 66 47.5 114t114.5 48q68 0 115 -48t47 -114q0 -78 -57 -125q-16 -14 -31.5 -34.5t-9.5 -49.5q4 -31 46 -50t97 -28q43 -6 87 24t80 85t59.5 134t23.5 171q0 74 -23.5 134.5t-66.5 100.5t-103.5 54t-134.5 -2l-4 14q51 25 103.5 71t94.5 104.5t70.5 126 t34.5 139.5q2 49 -4 94t-23.5 78.5t-45 54t-66.5 20.5q-41 0 -79 -6t-69.5 -16t-52 -25.5t-24.5 -36.5q-6 -29 9 -49t32 -35q57 -47 57 -125q0 -68 -47 -114.5t-115 -46.5t-115 47t-47 114q0 63 38 117.5t98 95.5q45 33 123.5 63t191.5 30q76 0 159 -15.5t152.5 -50.5 t113.5 -95.5t44 -148.5q0 -72 -37 -126t-93 -95t-122 -69t-121 -46q51 12 128 3t147.5 -49t118 -115.5t40.5 -194.5q-6 -100 -56 -180t-125 -136.5t-167 -86t-182 -29.5q-113 0 -191.5 29.5t-123.5 60.5q-59 41 -97.5 96.5t-38.5 118.5z" />
<glyph unicode="4" horiz-adv-x="989" d="M61 305q53 119 117 238t118 230.5t91 211.5t41 186q2 55 -10 95.5t-31.5 67t-41 39.5t-40.5 13v15q100 41 195.5 31.5t165.5 -56.5q47 -31 77.5 -84t34.5 -116.5t-21.5 -135t-88.5 -139.5q-53 -57 -125 -116.5t-151 -129t-158.5 -152.5t-149.5 -186h377v17v76v116 q0 20 -14.5 36t-36.5 16v12q100 16 196 52t168 71h12v-314v-61v-21h142v-12h-142v-149v-29v-64q0 -23 14.5 -37t37.5 -14v-12h-199h-229v12q23 0 37 14.5t14 36.5v64v29v53v96h-385h-15z" />
<glyph unicode="5" horiz-adv-x="1105" d="M61 305q0 66 47.5 114t114.5 48q68 0 115 -48t47 -114q0 -78 -57 -125q-16 -14 -31.5 -34.5t-9.5 -49.5q4 -31 46 -50t97 -28q43 -6 87 24t80 85t59.5 134t23.5 171q0 57 -16.5 111.5t-48 97.5t-80 68.5t-111.5 25.5q-98 0 -172 -34.5t-117 -69.5v485q0 43 14.5 89 t51.5 84t101.5 62.5t162.5 24.5q39 0 83 -7t90 -15t92 -15.5t89 -7.5q39 0 74 6t62.5 18.5t44 32t16.5 46.5h16q2 -8 7 -43t3 -83t-13 -102.5t-43 -101.5t-86 -82t-138 -41q-68 -6 -136.5 6t-133 30.5t-121 34t-101.5 15.5q-59 0 -92 -27.5t-33 -58.5v-324q18 14 52 41 t83.5 52.5t111.5 48t134 30.5q94 12 188.5 -9t170.5 -72.5t120 -131t37 -184.5q-6 -100 -56 -180t-126 -136.5t-167 -86t-181 -29.5q-113 0 -191.5 29.5t-123.5 60.5q-59 41 -97.5 96.5t-38.5 118.5z" />
<glyph unicode="6" horiz-adv-x="1222" d="M61 717q0 137 37 266t114 229.5t193.5 161t276.5 60.5q109 0 188.5 -30t124.5 -61q59 -41 97 -96t38 -119q0 -66 -47 -113.5t-114 -47.5q-68 0 -115 48t-47 113q0 39 15.5 71t41.5 54q16 14 31.5 35t9.5 49q-4 20 -29.5 38t-63.5 29t-86 14t-97 -3q-53 -8 -87 -67.5 t-55.5 -151.5t-29.5 -208t-8 -236q31 16 101.5 49t168.5 43q92 8 175 -15.5t143.5 -76t94 -132t27.5 -180.5q-6 -100 -50 -181t-111.5 -138.5t-152.5 -89t-175 -31.5q-119 0 -228.5 43t-194.5 131t-135.5 223t-50.5 320zM449 735q0 -133 8 -262t28.5 -230.5t55.5 -163 t88 -61.5q31 0 62.5 34t55 91.5t38 134t12.5 162.5q-2 74 -30 137.5t-75 105.5t-109.5 57.5t-133.5 -5.5z" />
<glyph unicode="7" horiz-adv-x="1069" d="M63.5 1103q2.5 48 13.5 103.5t43 102.5t85 80.5t139 42.5q68 6 134.5 -6.5t128 -31t115.5 -33.5t99 -15q61 0 91 27.5t34 58.5h12h3q20 -29 33.5 -75t13.5 -106q0 -106 -41 -194t-97.5 -170t-114 -163t-91 -170t-29.5 -193.5t74 -233.5q-35 -57 -95.5 -92t-132.5 -35 q-55 0 -102 20.5t-83 57.5t-57.5 85t-23.5 103q-6 113 46 198t135 156.5t182.5 135t187.5 132t149.5 148.5t71.5 183q-29 -86 -115 -134.5t-210 -48.5q-39 0 -86.5 7.5t-97.5 14.5t-99 14t-92 7q-39 0 -74 -5t-62.5 -17.5t-44 -31.5t-16.5 -46h-16q-2 8 -7.5 42t-3 82z" />
<glyph unicode="8" horiz-adv-x="1161" d="M61 1036q0 104 47.5 180t123 124.5t170 71t188.5 22.5q88 0 178 -21.5t164 -65.5t120 -111t46 -155q0 -68 -30 -117t-72 -83.5t-89 -56t-84 -31.5q55 -41 105.5 -85t88.5 -92.5t60.5 -102.5t22.5 -116q0 -104 -46 -179t-120 -124t-167 -71.5t-185 -22.5h-2 q-88 0 -178.5 21.5t-164 64.5t-119.5 108.5t-46 155.5q0 66 28.5 115t69.5 85t87 57.5t83 31.5q-55 43 -106.5 87t-89.5 92t-60.5 102.5t-22.5 115.5zM324 350q0 -68 12 -128t41 -107t78 -75t125 -28q57 0 103 20.5t71.5 57.5t23.5 88t-39 113q-57 92 -160.5 170t-209.5 155 q-31 -61 -38 -130.5t-7 -135.5zM383 1257.5q0 -51.5 39 -114.5q59 -94 163.5 -173t213.5 -157q33 61 40 132t7 136q0 68 -12.5 129.5t-41 108.5t-77.5 74.5t-125 27.5q-59 0 -107.5 -19.5t-74 -56t-25.5 -88z" />
<glyph unicode="9" horiz-adv-x="1222" d="M63 993q6 100 50.5 181t112 138.5t152.5 89.5t175 32q119 0 228.5 -43t193.5 -131.5t135 -223.5t51 -319q0 -137 -37 -266t-113.5 -229.5t-192.5 -161t-275 -60.5q-111 0 -191 29.5t-125 60.5q-59 41 -97 96.5t-38 118.5q0 66 47 114t115 48t115 -48t47 -114 q0 -39 -15.5 -70.5t-42.5 -54.5q-16 -14 -31.5 -34.5t-9.5 -49.5q4 -23 30 -40t64 -27.5t86 -13.5t97 3q51 8 86 66.5t56.5 151t29.5 209t8 237.5q-16 -8 -41.5 -22.5t-59.5 -28t-77 -25.5t-92 -16q-92 -10 -175 14.5t-143.5 76.5t-94.5 131t-28 181zM426 993 q2 -74 29.5 -137t75 -105t109.5 -57.5t134 4.5q0 133 -8 262.5t-28.5 230.5t-55.5 162.5t-88 61.5q-31 0 -62.5 -33.5t-55 -92t-38 -134.5t-12.5 -162z" />
<glyph unicode=":" horiz-adv-x="446" d="M61 307q0 68 47.5 115t114.5 47q68 0 115 -47t47 -115t-47 -115t-115 -47t-115 47.5t-47 114.5zM61 848q0 68 47.5 115t114.5 47q68 0 115 -47t47 -115t-47 -115t-115 -47t-115 47t-47 115z" />
<glyph unicode=";" horiz-adv-x="446" d="M61 307q0 -68 47.5 -115t114.5 -47q23 -8 25 -38.5t-35 -71.5v-12q29 18 59.5 46.5t55 66.5t41 81t16.5 90q0 68 -47 115t-115 47t-115 -47t-47 -115zM61 848q0 68 47.5 115t114.5 47q68 0 115 -47t47 -115t-47 -115t-115 -47t-115 47t-47 115z" />
<glyph unicode="&#x3c;" horiz-adv-x="858" d="M61 506l736 297v-17l-695 -280l695 -283v-16z" />
<glyph unicode="=" horiz-adv-x="1030" d="M61 334v14h908v-14h-908zM61 662v14h908v-14h-908z" />
<glyph unicode="&#x3e;" horiz-adv-x="858" d="M61 207v16l697 283l-697 280v17l736 -297z" />
<glyph unicode="?" horiz-adv-x="1038" d="M61 1128q0 63 38 117.5t98 95.5q45 33 123.5 63t191.5 30q82 0 166 -22.5t149.5 -71t107.5 -124t42 -180.5q0 -84 -38 -156.5t-95.5 -136t-124 -120t-123.5 -108.5t-95 -101t-38 -99q0 -49 34.5 -83.5t86.5 -34.5q55 0 90 39l8 -7q-41 -47 -99.5 -74.5t-123.5 -27.5 q-61 0 -114.5 22.5t-93.5 62.5t-63.5 93t-23.5 115q0 86 27.5 154.5t70.5 127t97.5 109.5t108.5 103.5t104.5 107.5t86.5 121q33 63 34 114.5t-21.5 88t-65.5 56t-94 19.5q-41 0 -79 -6t-69.5 -16t-52 -25.5t-24.5 -36.5q-6 -29 9 -49t32 -35q57 -47 57 -125 q0 -68 -47 -114.5t-115 -46.5t-115 47t-47 114zM164 418v2v2v-4zM297 -90q0 68 47 115t115 47t115 -47.5t47 -114.5q0 -68 -47.5 -115t-114.5 -47q-68 0 -115 47t-47 115z" />
<glyph unicode="@" horiz-adv-x="1484" d="M61 717q0 147 56.5 278t154 228.5t228.5 154t278 56.5q121 0 230 -39q55 -18 106 -46t94 -65q94 -74 148 -176q59 -109 65 -238q6 -133 -37 -245q-41 -104 -116 -185q-74 -78 -169 -122t-194 -44q-70 0 -111.5 38t-29.5 112l121 704q-12 4 -28.5 7.5t-39.5 -0.5 q-37 -6 -73.5 -33t-71.5 -78t-64.5 -128t-48.5 -181q-41 -211 -15.5 -311.5t97.5 -92.5q29 4 60.5 24.5t60.5 55.5l2 -16q-39 -41 -91 -68.5t-112 -32.5q-80 -4 -142.5 25t-100 86t-51 141t4.5 189q18 100 62.5 181t105 136t131 86t140.5 35q72 2 129 -6t110.5 -14.5 t105.5 -3t115 29.5l-65 -393q-12 -74 -24.5 -144.5t-21.5 -127t-16 -90.5l-6 -35q-6 -41 10.5 -46.5t28.5 -0.5q47 20 94.5 53t88.5 74q27 29 55 68.5t51 92t35 117t8 141.5q-6 135 -64.5 238.5t-147.5 173.5t-198.5 105.5t-220.5 35.5q-145 0 -274 -55t-225.5 -150.5 t-151.5 -224.5t-55 -274t55 -274.5t151.5 -225.5t225.5 -151.5t274 -55.5q121 0 228.5 39t197.5 107l8 -11q-92 -68 -201.5 -106.5t-232.5 -38.5q-147 0 -278 56.5t-228.5 153.5t-154 228t-56.5 279z" />
<glyph unicode="A" horiz-adv-x="1282" d="M61 0v10q39 0 73 15.5t61.5 41t48 58.5t32.5 68l54 157v4h2l366 1080l469 -1385q14 -39 54 -39v-10h-396v10q14 0 23.5 10.5t9.5 22.5q0 4 -1 6t-1 6l-98 287h-418l-49 -141q-6 -23 -6 -45q0 -59 42 -102.5t101 -43.5v-10h-367zM342 354h412l-205 607z" />
<glyph unicode="B" horiz-adv-x="1177" d="M61 0v12q23 0 37.5 14.5t14.5 36.5v52v782v190v179v30v23v51q0 23 -14.5 37t-37.5 14v13h648q63 0 120.5 -27t98.5 -73t65.5 -108.5t24.5 -131.5q0 -115 -57.5 -203t-141.5 -129q63 -10 117.5 -43t94.5 -84t62.5 -115.5t22.5 -136.5q0 -80 -27.5 -149.5t-74.5 -122 t-110.5 -82t-135.5 -29.5h-330h-235h-142zM438 63q0 -23 14.5 -37t36.5 -14h50h69q29 0 61.5 22.5t59.5 69t44.5 116t17.5 163.5t-17.5 163.5t-44.5 116t-59.5 70t-61.5 23.5h-170v-441v-129v-18v-105zM438 766h146q27 2 55.5 22.5t52 61.5t38.5 101.5t15 142.5t-15 143 t-39.5 102t-53.5 61.5t-55 20.5h-93q-23 0 -37 -14t-14 -37v-188v-64v-215v-137z" />
<glyph unicode="C" horiz-adv-x="1181" d="M61 717q0 150 42 279.5t121 227t191.5 154t254.5 56.5q113 0 191.5 -30t123.5 -61q59 -41 97 -96t38 -119q0 -68 -47 -114.5t-115 -46.5t-114.5 47t-46.5 114q0 37 15 70t42 55q16 14 31.5 35t11.5 49q-6 27 -29.5 43.5t-60.5 26.5q-16 4 -43 8t-55 4q-59 0 -107.5 -19.5 t-82.5 -72.5t-53.5 -145t-19.5 -236v-229v-230q0 -145 19.5 -236t53.5 -144.5t82 -73t108 -19.5q29 0 55.5 4.5t42.5 8.5q37 10 60.5 26.5t29.5 42.5q4 29 -11.5 49.5t-31.5 34.5q-27 23 -42 54.5t-15 70.5q0 66 47 114t114 48q68 0 115 -48t47 -114q0 -63 -38 -118.5 t-97 -96.5q-45 -31 -124 -60.5t-191 -29.5q-141 0 -254 56.5t-192 153.5t-121 227t-42 280z" />
<glyph unicode="D" horiz-adv-x="1431" d="M61 0v12q23 0 37.5 14.5t14.5 36.5v52v782v190v179v30v23v51q0 23 -14.5 37t-37.5 14v13h93h499q147 0 278.5 -56.5t228.5 -154t153.5 -228.5t56.5 -278t-56.5 -278.5t-153.5 -228.5t-228 -153.5t-279 -56.5h-450h-142zM438 84q0 -29 20.5 -50.5t51.5 -21.5h143 q104 0 174 55.5t112 150.5t58.5 223t16.5 276q0 147 -16.5 275t-58.5 223.5t-111.5 150.5t-174.5 55h-143q-31 0 -51.5 -21.5t-20.5 -49.5v-232v-215v-588v-231z" />
<glyph unicode="E" horiz-adv-x="929" d="M61 0v12q23 0 37.5 14.5t14.5 36.5v52v782v190v283q0 23 -14.5 37t-37.5 14v13h101h405h60h241v-256h-12q0 51 -19.5 95t-52 76.5t-76.5 52t-94 19.5h-125q-23 0 -37 -14t-14 -37v-188v-64v-215v-182h66q41 0 76.5 15.5t63.5 43t43 63.5t15 77h11v-408h-11q0 41 -15 78 t-43 63.5t-63.5 42t-76.5 15.5h-66v-396v-129v-18v-105q0 -23 14.5 -37t36.5 -14h50h75q49 0 93.5 19.5t77 52.5t52 77t19.5 93h12v-254h-706h-101z" />
<glyph unicode="F" horiz-adv-x="929" d="M61 0v12q23 0 37.5 14.5t14.5 36.5v283v88v653v283q0 23 -14.5 37t-37.5 14v13h101h405h60h241v-256h-12q0 51 -19.5 95t-52 76.5t-76.5 52t-94 19.5h-125q-23 0 -37 -14t-14 -37v-188v-64v-215v-182h66q41 0 76.5 15.5t63.5 43t43 63.5t15 77h11v-408h-11q0 41 -15 78 t-43 63.5t-63.5 42t-76.5 15.5h-66v-396v-129v-18v-105q0 -23 14.5 -37t36.5 -14v-12h-30h-76h-221h-101z" />
<glyph unicode="G" horiz-adv-x="1306" d="M61 717q0 150 42 279.5t121 227t191.5 154t254.5 56.5q113 0 191.5 -30t123.5 -61q59 -41 97 -96t38 -119q0 -68 -47 -114.5t-115 -46.5t-114.5 47t-46.5 114q0 37 15 70t42 55q16 14 31.5 35t11.5 49q-6 27 -29.5 43.5t-60.5 26.5q-16 4 -47 9t-90 5q-49 -2 -91 -26.5 t-71 -79.5t-45.5 -146.5t-16.5 -222.5v-229v-230q0 -133 16.5 -223t45.5 -146.5t71 -81t91 -24.5q59 0 108 14.5t90 41.5v421q0 23 -14 37.5t-37 14.5v12h428v-12q-23 0 -38 -14.5t-15 -37.5v-426q0 -23 15.5 -37t37.5 -14v-12h-428v12q18 0 31.5 11.5t17.5 29.5 q-41 -25 -89 -39t-107 -14q-141 0 -254 56.5t-192 153.5t-121 227t-42 280z" />
<glyph unicode="H" horiz-adv-x="1191" d="M61 0v12q23 0 37.5 14.5t14.5 36.5v283v551v190v283q0 23 -14.5 37t-37.5 14v13h101h221h76h30v-13q-23 0 -37 -14t-14 -37v-283v-184v-180h316v174v190v283q0 23 -14.5 37t-37.5 14v13h101h221h76h30v-13q-23 0 -38 -14t-15 -37v-283v-184v-489v-68v-283q0 -23 15.5 -37 t37.5 -14v-12h-30h-76h-221h-101v12q23 0 37.5 14.5t14.5 36.5v283v363h-316v-295v-68v-283q0 -23 14.5 -37t36.5 -14v-12h-30h-76h-221h-101z" />
<glyph unicode="I" horiz-adv-x="550" d="M61 0v12q23 0 37.5 14.5t14.5 36.5v246v815v246q0 23 -14.5 37t-37.5 14v13h230h170h28v-13q-23 0 -37 -14t-14 -37v-246v-815v-246q0 -23 14.5 -37t36.5 -14v-12h-28h-170h-230z" />
<glyph unicode="J" horiz-adv-x="919" d="M61 305q0 68 47.5 115t114.5 47q68 0 115 -47t47 -115q0 -72 -53 -119q-31 -29 -37 -53t-2 -47t29 -48q21 -23 54 -23q5 0 11 1q29 2 47.5 29t28.5 71t14 101t4 121v1032q0 23 -14 37t-37 14v13h395h33v-13q-23 0 -37 -14t-14 -37v-57v-975q0 -63 -29.5 -123.5t-80 -109 t-119 -77t-144.5 -28.5q-78 0 -145.5 23.5t-118.5 65.5t-80 97.5t-29 118.5z" />
<glyph unicode="K" horiz-adv-x="1331" d="M61 0v12q23 0 37.5 14.5t14.5 36.5v246v672v143v246q0 23 -14.5 37t-37.5 14v13h230h170h28v-13q-23 0 -37 -14t-14 -37v-246v-133v-237l461 510q25 29 25 63q0 41 -28 67.5t-69 26.5v13h443v-13q-104 -4 -194.5 -45t-157.5 -110q-37 -39 -78 -86q-35 -41 -83 -92.5 t-100 -108.5l553 -946q12 -20 41 -21v-12h-26h-131h-170q-41 0 -70 8t-41 31q-20 37 -52 90t-69 115.5t-75.5 129t-73.5 126t-62.5 106.5t-42.5 74v-305v-66v-246q0 -23 14.5 -37t36.5 -14v-12h-28h-170h-230z" />
<glyph unicode="L" horiz-adv-x="929" d="M61 0v12q23 0 37.5 14.5t14.5 36.5v283v653v88v283q0 23 -14.5 37t-37.5 14v13h101h221h76h30v-13q-23 0 -37 -14t-14 -37v-188v-64v-588v-215v-231q0 -29 20.5 -50.5t51.5 -21.5h104q49 0 93.5 19.5t77 52.5t52 77t19.5 93h12v-254h-241h-60h-405h-101z" />
<glyph unicode="M" horiz-adv-x="1669" d="M61 0v10q78 0 131.5 54.5t53.5 132.5v1179l-2 10q-14 35 -49 35v13h436v-13q-39 0 -39 -39q0 -8 2 -12l317 -876l316 876q2 4 2 12q0 16 -10.5 27.5t-26.5 11.5v13h184h33h170h29v-13q-23 0 -38.5 -14t-15.5 -37v-225v-21v-815v-246q0 -23 15.5 -37t38.5 -14v-12h-29 h-170h-229v12q23 0 37 14.5t14 36.5v246v815v222l-488 -1346l-485 1346v-1149q0 -78 53.5 -132.5t130.5 -54.5v-10h-381z" />
<glyph unicode="N" horiz-adv-x="1382" d="M61 0v10q41 0 77 15.5t62.5 43t42 63.5t15.5 77v1161q0 23 -14.5 37t-36.5 14v13h375l530 -1350v1141q0 41 -15.5 76.5t-43 62.5t-63.5 42t-77 15v13h408v-13q-84 0 -141.5 -57t-57.5 -139v-1162q0 -23 15.5 -37t38.5 -14v-12h-377l-529 1350v-1141q0 -41 15.5 -77 t42 -63.5t62.5 -43t77 -15.5v-10h-406z" />
<glyph unicode="O" horiz-adv-x="1447" d="M61 717q0 150 45.5 279.5t131.5 227t208.5 154t276.5 56.5t276.5 -56.5t208.5 -154t132 -227.5t46 -279q0 -150 -46 -280t-132 -227t-208.5 -153.5t-276.5 -56.5t-276.5 56.5t-208.5 153.5t-131.5 227t-45.5 280zM446 487q0 -145 21.5 -236t58.5 -144.5t87.5 -73 t109.5 -19.5t110.5 19.5t88 73t58 144.5t21.5 236v230v229q0 143 -21.5 235.5t-58 145.5t-88 72.5t-110.5 19.5t-109.5 -19.5t-87.5 -72.5t-58.5 -145t-21.5 -236v-229v-230z" />
<glyph unicode="P" horiz-adv-x="1177" d="M61 0v12q23 0 37.5 14.5t14.5 36.5v105v178v191v782v51q0 23 -14.5 37t-37.5 14v13h142h235h211q221 0 344 -104.5t123 -289.5q0 -184 -123 -289.5t-344 -105.5h-211v-115v-215v-147v-105q0 -23 14.5 -37t36.5 -14v-12h-143h-285zM438 657h131h11q35 0 71.5 19.5 t67.5 63.5t51.5 118t20.5 182q0 109 -20.5 181.5t-51.5 117.5t-68 63.5t-71 18.5h-13h-78q-23 0 -37 -14t-14 -37v-51v-82v-119v-461z" />
<glyph unicode="Q" horiz-adv-x="1454" d="M61 717q0 150 45.5 279.5t131.5 227t208.5 154t276.5 56.5t276.5 -56.5t208.5 -154t132 -227.5t46 -279q0 -207 -84.5 -373t-242.5 -258q-49 -29 -102.5 -50.5t-104.5 -40t-98 -33.5t-80 -30q12 6 33.5 9.5t33.5 3.5q74 0 132.5 -24.5t111.5 -53.5t106.5 -53.5 t114.5 -24.5q55 0 98.5 16.5t69.5 57.5h19q-2 -33 -13.5 -63.5t-35 -55.5t-58.5 -40t-82 -15q-76 0 -132 37.5t-106.5 83t-103.5 83t-123 37.5q-51 0 -83.5 -16t-61.5 -35q-25 -18 -34 -7t11 28q18 12 38 20t46.5 18.5t60.5 24.5t77 39q-16 -2 -34 -2h-36 q-154 0 -276.5 56.5t-208.5 153.5t-131.5 227t-45.5 280zM446 487q0 -145 21.5 -236t58.5 -144.5t87.5 -73t109.5 -19.5t110.5 19.5t88 73t58 144.5t21.5 236v230v229q0 143 -21.5 235.5t-58 145.5t-88 72.5t-110.5 19.5t-109.5 -19.5t-87.5 -72.5t-58.5 -145t-21.5 -236 v-229v-230z" />
<glyph unicode="R" horiz-adv-x="1398" d="M61 0v12q23 0 37.5 14.5t14.5 36.5v105v178v191v782v51q0 23 -14.5 37t-37.5 14v13h142h235h211q221 0 344 -104.5t123 -289.5q0 -154 -85 -252t-243 -129q68 -20 130 -86q39 -45 71.5 -116.5t63 -147.5t63.5 -145.5t72 -108.5q32 -31 70 -36q6 -1 11 -1q32 0 60 25l8 -8 q-10 -12 -34.5 -28.5t-60.5 -32t-83 -25.5t-102 -10q-137 0 -218 52t-126 130t-67.5 168t-46.5 169t-57.5 132t-103.5 55v-115v-215v-147v-105q0 -23 14.5 -37t36.5 -14v-12h-143h-285zM438 657h121q35 0 75 19.5t74.5 63.5t58.5 118t24 182q0 109 -20.5 181.5t-51.5 117.5 t-68 63.5t-71 18.5h-13h-57h-21q-23 0 -37 -14t-14 -37v-51v-72v-129v-461z" />
<glyph unicode="S" horiz-adv-x="1038" d="M61 305q0 66 47.5 114t114.5 48q68 0 115 -48t47 -114q0 -78 -57 -125q-16 -14 -31.5 -34.5t-9.5 -49.5q4 -20 24.5 -35.5t52 -26.5t69.5 -16.5t79 -5.5q51 0 94 20q44 19 66 56q22 35 21 84q0 53 -34 119q-37 66 -94 123t-123.5 113.5t-134 111.5t-122 115.5t-89.5 130 t-35 151.5q0 104 42 180t107.5 124.5t148.5 71t167 22.5q113 0 192 -30t124 -63q59 -41 97 -95t38 -118q0 -68 -47 -114.5t-115 -46.5t-115 47t-47 114q0 37 15.5 70t42.5 55q16 14 31.5 35t9.5 49q-4 20 -24.5 36t-52.5 26t-71 16t-78 6q-53 0 -95 -19q-43 -20 -65 -56 q-22 -35 -21 -84q0 -54 36 -119q35 -66 93 -124t124 -113.5t133.5 -111t121.5 -116t89 -130t35 -151.5q0 -106 -42 -181t-107.5 -123t-149.5 -70.5t-166 -22.5q-113 0 -191.5 29.5t-123.5 60.5q-59 41 -97.5 96.5t-38.5 118.5z" />
<glyph unicode="T" horiz-adv-x="1183" d="M61 1178v256h1061v-256h-10q0 51 -19.5 95t-52 76.5t-76.5 52t-96 19.5h-61q-23 0 -38 -14t-15 -37v-20v-232v-215v-588v-47v-205q0 -23 15 -37t38 -14v-12h-33h-67h-7h-217h-6h-67h-31v12q23 0 37 14.5t14 36.5v205v47v588v215v232v20q0 23 -14.5 37t-36.5 14h-64 q-49 0 -94 -19.5t-77.5 -52t-52 -76.5t-19.5 -95h-11z" />
<glyph unicode="U" horiz-adv-x="1368" d="M61 1421v13h31h137h222h100v-13q-23 0 -38 -14t-15 -37v-653v-230q0 -156 21.5 -251t54.5 -145q34 -49 77 -63q26 -8 51 -9q17 0 33 4q197 39 280 213t83 481v164v344q0 82 -57.5 139t-139.5 57v13h406v-13q-82 0 -139.5 -57t-57.5 -139v-363v-145q0 -150 -20.5 -280 t-74.5 -227t-151.5 -153.5t-251.5 -56.5t-251 56.5t-152 153.5t-75.5 227t-20.5 280v653q0 23 -14.5 37t-37.5 14z" />
<glyph unicode="V" horiz-adv-x="1404" d="M61 1421v13h428v-13q-33 0 -32 -32q0 -2 1 -4.5t1 -6.5l352 -1038l303 891q6 25 6 47q0 59 -42 101t-101 42v13h366v-13q-78 0 -135 -54t-80 -126l-421 -1241h-123l-469 1384q-14 37 -54 37z" />
<glyph unicode="W" horiz-adv-x="1992" d="M61 1421v13h428v-13q-33 0 -32 -32q0 -2 1 -4.5t1 -6.5l352 -1038l123 362l-232 682q-14 37 -53 37v13h428v-13q-33 0 -33 -32q0 -6 3 -11l352 -1038l303 891q6 25 6 47q0 59 -42 101t-101 42v13h366v-13q-78 0 -135 -54t-80 -126l-422 -1241h-123l-231 684l-233 -684 h-123l-469 1384q-14 37 -54 37z" />
<glyph unicode="X" horiz-adv-x="1380" d="M61 0v10q61 0 109.5 36t79.5 87l297 508l-445 760q-12 20 -41 20v13h29h129h291v-13q-25 0 -25 -26q0 -8 4 -13l338 -579l263 448q16 29 16 58q0 47 -33 79.5t-80 32.5v13h326v-13q-61 0 -109.5 -34.5t-79.5 -86.5l-296 -507l444 -760q12 -20 41 -21v-12h-29h-129h-291 v12q10 0 17.5 7.5t7.5 17.5t-4 14l-338 580l-262 -451q-16 -27 -17 -57q0 -47 33 -80t80 -33v-10h-326z" />
<glyph unicode="Y" horiz-adv-x="1374" d="M61 1421v13h29h129h291v-13q-25 0 -25 -26q0 -8 4 -13l334 -573l260 442q16 29 17 58q0 47 -33 79.5t-80 32.5v13h326v-13q-61 0 -109.5 -34.5t-79.5 -86.5l-286 -491v-500v-246q0 -23 14 -37t37 -14v-12h-29h-170h-229v12q23 0 37 14.5t14 36.5v635l-410 703 q-12 20 -41 20z" />
<glyph unicode="Z" horiz-adv-x="1265" d="M61 0l777 1382q2 4 2 13q0 27 -25 26h-233h-64q-49 0 -93 -19.5t-77 -52t-52.5 -76.5t-19.5 -95h-12v256h293h647l-774 -1383q-4 -8 -4 -12q0 -27 27 -27h34h197h64q51 0 95 19.5t76.5 52.5t52 77t19.5 93h10v-254h-292h-648z" />
<glyph unicode="[" horiz-adv-x="585" d="M61 72v73v1143v244v63h355h108v-10h-108h-31v-297v-1143v-73v-224h31h108v-10h-108h-355v64v170z" />
<glyph unicode="\" horiz-adv-x="747" d="M61 1434h17l608 -1434h-16z" />
<glyph unicode="]" horiz-adv-x="585" d="M61 -152h107h31v224v73v1143v297h-31h-107v10h107h356v-63v-244v-1143v-73v-170v-64h-356h-107v10z" />
<glyph unicode="^" horiz-adv-x="526" d="M51 1542q0 14 8 23l179 194q8 12 24 13q16 0 27 -13l178 -194q8 -12 8 -23q0 -35 -35 -35q-6 0 -18 4l-160 107l-158 -107q-12 -4 -18 -4q-35 0 -35 35z" />
<glyph unicode="_" horiz-adv-x="1210" d="M61 0v14h1088v-14h-1088z" />
<glyph unicode="`" horiz-adv-x="466" d="M51 1311q0 14 9.5 24.5t25.5 10.5h117q16 0 26 -13l179 -194q8 -12 8 -23q0 -16 -10.5 -25.5t-24.5 -9.5q-10 0 -19 4l-296 197q-14 10 -15 29z" />
<glyph unicode="a" horiz-adv-x="1003" d="M53 272q6 61 35 104.5t70 75t92 53t104 38.5q109 33 157 65.5t64 61.5v102q1 116 -25 174q-21 48 -80 49q-11 0 -24 -2q-94 -10 -106 -65q-6 -29 12.5 -48.5t34.5 -35.5q23 -23 35 -51.5t12 -63.5q0 -68 -47 -115t-115 -47t-114.5 47.5t-46.5 114.5q0 57 30.5 108.5 t85 89.5t126 59.5t153.5 21.5t153.5 -21.5t125 -59.5t85 -89.5t31.5 -108.5v-577v-15v-53v-21q0 -23 14.5 -37t36.5 -14v-12h-229q-66 0 -98.5 24.5t-42.5 81.5q-41 -45 -100.5 -72.5t-127.5 -33.5q-18 -2 -36 -2q-46 0 -87 12q-57 16 -99 51t-64 89q-17 39 -17 87 q0 17 2 35zM365 272q0 -78 19 -122t49 -62q25 -15 51 -15q6 0 12 1q32 4 59 22q6 6 12 11.5t13 11.5q-2 14 -3.5 29.5t-1.5 31.5v78v391q-29 -37 -64.5 -62.5t-68 -61.5t-55 -94t-22.5 -159z" />
<glyph unicode="b" horiz-adv-x="1099" d="M51 0v12q23 0 37 14.5t14 36.5v64v182v672v143v246q0 23 -14 37t-37 14v13h230q82 0 114.5 -41t32.5 -140v-125v-137v-67q39 23 99.5 52.5t146.5 29.5q80 0 148.5 -35t118.5 -100.5t79 -157.5t29 -209q0 -121 -31 -216t-86 -161q-55 -67 -132 -99q-69 -29 -149 -28h-20 q-68 4 -121 37t-88 76q-10 -59 -43 -86t-98 -27h-230zM426 133q27 -39 58.5 -62.5t64.5 -27.5q7 -1 13 0q73 1 117 105q44 106 44 320v36q-2 119 -16.5 201.5t-38 134t-55 75t-68.5 27.5h-11q-30 0 -54 -9q-30 -11 -52 -26v-602v-125q0 -12 -1 -24.5t-1 -22.5z" />
<glyph unicode="c" horiz-adv-x="964" d="M51 506q0 104 32 196.5t92.5 160t147.5 107.5t195 40q82 0 153.5 -21.5t125 -59.5t85 -89.5t31.5 -108.5q0 -68 -48 -115t-113 -47q-68 0 -116 47.5t-48 114.5q0 66 49 115q16 16 33.5 35.5t11.5 48.5q-6 27 -35 44t-69 21q-8 2 -23 2q-47 0 -81 -17t-56.5 -59 t-33.5 -111t-11 -173v-131v-133q0 -104 11 -173t33.5 -111t56.5 -59.5t81 -17.5q4 0 10 1t13 1q41 4 69.5 21.5t34.5 44.5q6 29 -11.5 48t-33.5 36q-49 49 -49 117q0 66 48 113.5t116 47.5q66 0 113.5 -48t47.5 -113q0 -59 -31.5 -109.5t-85 -89.5t-125 -60.5t-153.5 -21.5 q-109 0 -195.5 40t-147 108.5t-92.5 160.5t-32 197z" />
<glyph unicode="d" horiz-adv-x="1099" d="M51 504q0 117 29 209t80 157.5t118.5 100.5t147.5 35q86 0 147.5 -30t100.5 -52v67v379q0 23 -15.5 37t-37.5 14v13h229q84 0 115.5 -41t31.5 -140v-272v-672v-182v-64q0 -23 14.5 -37t37.5 -14v-12h-230q-66 0 -98.5 26.5t-42.5 86.5q-33 -43 -87 -76t-122 -37h-20 q-79 0 -147 28q-77 32 -132 98.5t-87 161.5t-32 216zM379 504v-37q0 -213 43 -319q43 -105 116 -105h13q33 4 65.5 27.5t59.5 62.5q-2 10 -2 22.5v24.5v125v602q-24 13 -54 25q-25 10 -53 10h-10q-37 -4 -69.5 -27.5t-56 -75t-37 -134t-15.5 -201.5z" />
<glyph unicode="e" horiz-adv-x="1015" d="M51 506q0 104 32 196.5t92.5 160t147.5 107.5t195 40q98 0 180 -36t141.5 -92.5t92.5 -128t33 -141.5h-592v-106v-133q0 -104 11 -173t33.5 -111t56.5 -59.5t81 -17.5q33 0 75 14.5t52 53.5q6 29 -11.5 48t-33.5 36q-49 49 -49 117q0 66 48 113.5t116 47.5 q66 0 113.5 -48t47.5 -113q0 -59 -31.5 -109.5t-85 -89.5t-125 -60.5t-153.5 -21.5q-109 0 -195.5 40t-147 108.5t-92.5 160.5t-32 197zM373 623h291q0 53 -2.5 108t-12.5 104.5t-31.5 88.5t-58.5 61q-4 2 -14 6t-27 4q-16 0 -27.5 -4t-15.5 -6q-53 -29 -77.5 -108.5 t-24.5 -239.5v-14z" />
<glyph unicode="f" horiz-adv-x="925" d="M51 0v12q23 0 37 14.5t14 36.5v58v868q0 211 109.5 328t308.5 117q78 0 143.5 -21.5t112.5 -60.5t72.5 -90.5t25.5 -108.5q0 -66 -48 -114t-115 -48q-66 0 -114 48t-48 114q0 68 49 117q16 16 33.5 35.5t11.5 48.5q-8 35 -38 50t-54 15q-76 0 -99.5 -74.5t-23.5 -238.5 v-309v-74h53q68 0 115 47t47 115h12v-336h-12q0 68 -47 115t-115 47h-53v-648q0 -23 14.5 -37t36.5 -14v-12h-395h-33z" />
<glyph unicode="g" d="M51 215q0 84 53.5 145.5t131.5 77.5q-115 92 -115 236q0 68 28.5 128t82 105t130 73t175.5 30q96 -2 172.5 -30t131 -73t83 -105.5t28.5 -127.5q0 -68 -28.5 -128.5t-83 -105.5t-131 -72.5t-172.5 -29.5q-92 4 -164 26.5t-125 63.5q-33 -16 -41 -43t10 -53 q12 -18 46 -28.5t78 -16.5t94.5 -9.5t99.5 -7.5q223 -16 352 -127.5t129 -283.5q0 -96 -38 -173t-103.5 -130.5t-152.5 -82t-187 -28.5h-3q-100 0 -187 26.5t-152.5 71.5t-103.5 105.5t-38 130.5q0 68 47 116t115 48t115 -48.5t47 -115.5q0 -33 -12.5 -61.5t-34.5 -51.5 q-10 -12 -28.5 -35.5t-18.5 -56.5q0 -39 27.5 -61.5t67.5 -35t84 -16.5t75 -4q92 0 154.5 24.5t101 63.5t56 87.5t17.5 97.5q0 70 -42 119t-105 65q-61 16 -132 24.5t-142.5 15.5t-136 18.5t-113.5 31.5q-61 27 -101.5 83t-40.5 128zM418 586q0 -233 119 -234q119 0 118 234 v88v88q0 235 -117 235h-1q-119 0 -119 -235v-88v-88z" />
<glyph unicode="h" d="M51 0v12q23 0 37 14.5t14 36.5v246v672v143v246q0 23 -14 37t-37 14v13h230q82 0 114.5 -41t32.5 -140v-125v-137v-67q84 52 178 74q54 13 104 12q36 0 70 -6q80 -16 132.5 -78t52.5 -181v-567v-115q0 -23 14 -37t37 -14v-12h-27h-172h-229v12q23 0 38 14.5t15 36.5v146 v582q0 70 -21.5 103.5t-54.5 42.5q-16 4 -32 4q-17 0 -37 -5q-36 -10 -68 -29v-532v-66v-246q0 -23 14.5 -37t36.5 -14v-12h-28h-170h-230z" />
<glyph unicode="i" horiz-adv-x="530" d="M51 0v12q23 0 37 14.5t14 36.5v246v393v244q0 23 -14 37t-37 14v13h230h170h28v-13q-23 0 -37 -14t-14 -37v-244v-393v-246q0 -23 14.5 -37t36.5 -14v-12h-28h-170h-230zM102 1272q0 66 48.5 114t113.5 48q68 0 116 -48t48 -114q0 -68 -48 -115t-116 -47q-66 0 -114 47 t-48 115z" />
<glyph unicode="j" horiz-adv-x="899" d="M51 -248q0 66 47 114t115 48t115 -48t47 -114q0 -74 -53 -121q-31 -29 -37 -53t-2 -47t29 -49q21 -22 54 -22q5 0 11 1q29 2 47 30t28.5 72t14.5 101t4 119v1163q0 23 -14.5 37t-36.5 14v13h395h33v-13q-23 0 -37 -14t-14 -37v-57v-1106q0 -63 -30 -123.5t-80 -109 t-118.5 -77t-144.5 -28.5q-78 0 -145.5 24.5t-118.5 65.5t-80 97.5t-29 119.5z" />
<glyph unicode="k" horiz-adv-x="1122" d="M51 0v12q23 0 37 14.5t14 36.5v246v672v143v246q0 23 -14 37t-37 14v13h230q82 0 114.5 -41t32.5 -140v-125v-137v-225q8 18 32.5 54t64.5 74t94.5 70.5t121.5 43.5q21 3 42 3q27 1 53 -5q46 -10 82 -38t56 -73q16 -35 17 -81q0 -14 -2 -28q-4 -61 -31.5 -121.5 t-60.5 -109.5t-60.5 -83t-33.5 -42q-2 -4 -4 -11t4 -18q14 -27 42.5 -72.5t61.5 -98t65.5 -105.5t57.5 -92q12 -20 41 -21v-12h-29h-170h-102q-41 0 -70.5 7t-40.5 32q-23 43 -47 90t-47.5 93t-45 87t-38.5 72q-8 16 -5 27.5t20 29.5q20 27 52 73t64.5 98.5t59 103.5 t37.5 90q8 33 8 59q0 15 -3 28q-7 34 -26.5 49t-48.5 11t-57 -24q-66 -47 -105 -103.5t-49 -87.5v-360v-66v-246q0 -23 14.5 -37t36.5 -14v-12h-28h-170h-230z" />
<glyph unicode="l" horiz-adv-x="530" d="M51 0v12q23 0 37 14.5t14 36.5v246v815v246q0 23 -14 37t-37 14v13h230h170h28v-13q-23 0 -37 -14t-14 -37v-246v-815v-246q0 -23 14.5 -37t36.5 -14v-12h-28h-170h-230z" />
<glyph unicode="m" horiz-adv-x="1605" d="M51 0v12q23 0 37 14.5t14 36.5v246v637q0 23 -14 37t-37 14v13h230q59 0 92 -21.5t45 -70.5q70 43 146.5 67.5t146.5 24.5t127 -26t92 -83q74 53 160 81t157 28q53 0 99.5 -14.5t81 -46t55 -82t20.5 -122.5v-567v-115q0 -23 14.5 -37t36.5 -14v-12h-28h-170h-230v12 q23 0 37.5 14.5t14.5 36.5v146v582q0 88 -32 119.5t-77 31.5q-33 0 -69.5 -16.5t-63.5 -36.5q29 -61 29 -144v-567v-115q0 -23 14 -37t37 -14v-12h-27h-172h-229v12q23 0 38 14.5t15 36.5v146v582q0 72 -22.5 106.5t-56.5 42.5q-14 3 -28 3q-22 0 -44 -7q-38 -12 -68 -31 q6 -35 6 -76v-454v-66v-246q0 -23 14.5 -37t36.5 -14v-12h-28h-170h-230z" />
<glyph unicode="n" d="M51 0v12q23 0 37 14.5t14 36.5v246v637q0 23 -14 37t-37 14v13h230q59 0 92 -21.5t45 -70.5q70 43 146.5 67.5t146.5 24.5q51 0 98 -14.5t81 -46t54.5 -82t20.5 -122.5v-567v-115q0 -23 14 -37t37 -14v-12h-27h-172h-229v12q23 0 38 14.5t15 36.5v146v582 q0 72 -22.5 106.5t-56.5 42.5q-14 3 -28 3q-22 0 -44 -7q-38 -12 -68 -31q6 -35 6 -76v-454v-66v-246q0 -23 14.5 -37t36.5 -14v-12h-28h-170h-230z" />
<glyph unicode="o" horiz-adv-x="1036" d="M51 506q0 104 32 196.5t92.5 160t147 107.5t195.5 40t195 -40t146.5 -107.5t93 -160t32.5 -196.5t-32.5 -196.5t-93 -161t-146.5 -108.5t-195 -40t-195.5 40t-147 108.5t-92.5 160.5t-32 197zM373 373q0 -186 35.5 -271.5t109.5 -85.5t110 85t36 272v133v131 q0 186 -36 271t-110 85t-109.5 -85t-35.5 -271v-131v-133z" />
<glyph unicode="p" horiz-adv-x="1099" d="M51 -412q23 0 37 14.5t14 37.5v245v144v671v183v63q0 23 -14 37t-37 14v13h230q59 0 90.5 -20.5t46.5 -67.5q18 12 43.5 26.5t57.5 28.5t71 23.5t84 9.5q80 0 148.5 -35t118.5 -100.5t79 -157.5t29 -209q0 -121 -31 -216t-86 -160.5t-132 -98.5q-69 -29 -149 -29h-20 q-66 4 -118 36t-85 73v-95v-137v-125q0 -98 -33 -139t-114 -41h-230v12zM420 907q8 -27 8 -78v-124v-572q25 -35 57.5 -58.5t63.5 -27.5q7 -1 13 -1q73 0 117 106q44 105 44 320v36q-2 119 -16.5 202t-38 134t-55 74.5t-68.5 27.5h-10q-32 0 -59 -10q-32 -12 -56 -29z" />
<glyph unicode="q" horiz-adv-x="1099" d="M51 508q0 117 29 209t80 157.5t118.5 100.5t147.5 35q45 0 84 -9.5t70.5 -23.5t58.5 -28.5t45 -26.5q23 88 135 88h230v-13q-23 0 -37.5 -14t-14.5 -37v-63v-183v-671v-144v-245q0 -23 14.5 -37.5t37.5 -14.5v-12h-230q-82 0 -113.5 41t-31.5 139v125v137v95 q-35 -41 -87 -73t-118 -36h-19q-79 0 -148 29q-77 33 -132 98.5t-87 160.5t-32 216zM379 508v-37q0 -214 43 -319q43 -106 116 -106q6 0 13 1q33 4 64.5 27.5t58.5 58.5v572v124q0 47 6 78q-25 16 -56 29q-28 10 -57 10h-10q-37 -4 -69.5 -27.5t-56 -74.5t-37 -134 t-15.5 -202z" />
<glyph unicode="r" horiz-adv-x="913" d="M51 0v12q23 0 37 14.5t14 36.5v246v637q0 23 -14 37t-37 14v13h230q115 0 137 -90q25 18 66.5 41.5t92 39t104.5 15.5t101 -29q56 -35 74 -99q6 -22 6 -43q0 -41 -22 -79q-36 -58 -100 -76q-22 -6 -42 -6q-42 0 -80 23q-59 35 -75 100q-8 29 -6 51.5t6 39.5t5 30.5 t-9 21.5q-8 8 -23.5 6t-32 -9t-34 -18t-29.5 -22q8 -27 8 -78v-454v-66v-246q0 -23 14.5 -37t36.5 -14v-12h-28h-170h-230z" />
<glyph unicode="s" horiz-adv-x="823" d="M51 281q0 66 47 113.5t115 47.5t115 -48t47 -113q0 -51 -25 -88q-10 -16 -21.5 -26.5t-21.5 -23.5q-23 -23 -24.5 -46t14.5 -44q37 -43 109 -43q25 0 52 4t49.5 16.5t37 37t14.5 65.5q0 66 -36 123t-88 108.5t-114.5 100.5t-114.5 99t-88 104.5t-36 117.5q0 49 26.5 91.5 t73.5 71t108.5 45t133.5 16.5q45 0 83 -8.5t72.5 -15.5t71.5 -8h4q35 0 78 15v-245h-10q-6 39 -28.5 82.5t-60.5 81.5t-90 62.5t-118 24.5q-47 0 -78 -22t-29 -59q4 -49 39 -93.5t85.5 -89.5t107.5 -92t106.5 -102.5t82 -119t32.5 -140.5q0 -68 -27.5 -120t-77 -88 t-117 -54.5t-144.5 -18.5q-74 0 -138.5 21.5t-113 59.5t-76 89t-27.5 111z" />
<glyph unicode="t" horiz-adv-x="657" d="M51 997v13q59 0 122 17t114 48t87 72t42 88h12v-225h131v-13h-131v-51v-145v-582q0 -72 16.5 -106.5t42 -43t57 4t62.5 30.5l-2 -16q-47 -33 -110.5 -60.5t-133.5 -27.5q-53 0 -100 14.5t-82 46t-55.5 82t-20.5 121.5v567v115q0 23 -14 37t-37 14z" />
<glyph unicode="u" d="M51 997v13h230q82 0 114.5 -41t32.5 -140v-211v-120v-277q0 -72 22.5 -106.5t56.5 -42.5q14 -3 28 -4q21 0 43 8q38 12 69 30q-6 31 -6 74v766q0 23 -15.5 37t-37.5 14v13h229q84 0 116 -41t32 -140v-211v-227v-328q0 -23 14 -37t37 -14v-12h-230q-59 0 -91.5 21.5 t-45.5 70.5q-68 -41 -145.5 -66.5t-145.5 -25.5q-53 0 -99 14.5t-81 46t-55.5 83t-20.5 122.5v262v90v328q0 23 -14 37t-37 14z" />
<glyph unicode="v" horiz-adv-x="1136" d="M51 999v11h408v-11q-14 0 -24.5 -9t-10.5 -23q0 -6 4 -15l244 -567l182 424q10 27 10 53q0 57 -40 97t-95 40v11h356v-11q-72 0 -124 -46t-80 -109l-363 -844l-416 965q-14 34 -49 34h-2z" />
<glyph unicode="w" horiz-adv-x="1634" d="M51 999v11h408v-11q-14 0 -24.5 -9t-10.5 -23q0 -6 4 -15l244 -567l88 207l-160 373q-18 34 -51 34h-2v11h407v-11q-33 0 -32 -32q0 -10 2 -15l243 -567l183 424q12 25 12 53q0 57 -40 97t-97 40v11h358v-11q-72 0 -125 -46t-82 -109l-362 -844l-248 578l-248 -578 l-416 965q-14 34 -49 34h-2z" />
<glyph unicode="x" horiz-adv-x="1077" d="M51 0v10q61 0 109.5 36t79.5 87l174 297l-322 549q-12 18 -41 18v13h29h129h256v-13q-27 0 -27 -24q0 -6 4 -15l215 -366l140 237q16 27 16 58q0 47 -32.5 79.5t-80.5 32.5v11h326v-11q-61 0 -110.5 -34.5t-77.5 -87.5l-174 -297l321 -547q12 -20 41 -21v-12h-29h-129 h-256v12q10 0 17.5 7.5t7.5 17.5t-2 14l-215 367l-139 -238q-16 -27 -17 -57q0 -47 33 -80t80 -33v-10h-326z" />
<glyph unicode="y" horiz-adv-x="1312" d="M51 -248q0 66 47 114t115 48t115 -48t47 -114q0 -78 -53 -121q-8 -8 -14.5 -14t-10.5 -14q-18 -25 -20.5 -49.5t6 -44t26 -33t37.5 -13.5q29 0 55.5 15.5t48 37t38 47t26.5 48.5l172 403l-407 951q-17 34 -50 34h-2v11h406v-11q-33 0 -33 -32q0 -10 2 -15l244 -567 l182 424q12 25 12 53q0 57 -39.5 97t-97.5 40v11h359v-11q-72 0 -125.5 -46t-81.5 -109l-531 -1237q-31 -72 -87 -117t-134 -45q-53 0 -98 24.5t-80 66.5t-54.5 97.5t-19.5 118.5z" />
<glyph unicode="z" horiz-adv-x="1009" d="M51 0l539 961q4 8 4 12q0 27 -27 26h-61h-113q-78 0 -132 -55t-54 -133h-12v199h763l-538 -961q-4 -8 -4 -12q0 -10 7 -18.5t17 -8.5h174q39 0 74 15.5t60.5 41t40 60.5t14.5 74h12v-201h-764z" />
<glyph unicode="{" horiz-adv-x="671" d="M61 690v12q88 0 166 -33.5t142 -93.5q63 -61 88.5 -124.5t31 -127t-3 -125t-11.5 -118.5t6 -108.5t50 -94.5q27 -29 80 -29v-10q-86 0 -165.5 32t-141.5 95q-63 63 -89 130t-31 131.5t2.5 127t10.5 118.5t-7.5 104.5t-47.5 85.5q-27 29 -80 28zM61 731v10q51 0 80 31 q37 37 47.5 85t7.5 104.5t-10.5 119t-2.5 127t31 131t89 129.5q61 63 141 95t166 32v-10q-53 0 -80 -29q-41 -43 -50 -94t-6 -108.5t11.5 -118.5t3 -124.5t-31 -127t-88.5 -125.5q-63 -59 -141 -93t-167 -34z" />
<glyph unicode="|" horiz-adv-x="137" d="M61 0v1434h15v-1434h-15z" />
<glyph unicode="}" horiz-adv-x="671" d="M61 -152v-10q88 0 167 32t141 95q63 63 88.5 130t31 131.5t-2 127t-10.5 118.5t7 104.5t47 85.5q27 29 80 28v12q-86 0 -164.5 -33.5t-142.5 -93.5q-63 -61 -89 -124.5t-31 -127t3.5 -125t11.5 -118.5t-7.5 -108.5t-49.5 -94.5q-27 -29 -80 -29zM61 1585v10 q88 0 167 -31.5t141 -95.5q63 -63 88.5 -129.5t31 -131t-2 -127t-10.5 -119t7 -104.5t47 -85q27 -31 80 -31v-10q-86 0 -164.5 34t-142.5 93q-63 61 -89 125t-31 127.5t3.5 124.5t11.5 118.5t-7.5 108.5t-49.5 94q-27 29 -80 29z" />
<glyph unicode="~" horiz-adv-x="692" d="M61 438q0 35 11.5 69t34 59.5t53 42t71.5 16.5q47 0 82 -19.5t68 -43t65.5 -43t75.5 -19.5q35 0 61.5 22.5t32.5 57.5l15 -9q0 -35 -11.5 -68.5t-34 -60t-54 -42t-70.5 -15.5q-59 0 -98 20.5t-71 45t-59.5 45t-60.5 20.5q-37 0 -64.5 -24.5t-31.5 -59.5z" />
<glyph unicode="&#xa1;" horiz-adv-x="532" d="M63 -49q4 80 21.5 181t44.5 234.5t59.5 302.5t67.5 388q0 10 10 10q8 0 13 -10q35 -219 66.5 -388t58 -302.5t44 -234.5t21.5 -181q2 -43 -13.5 -80t-43 -64.5t-65.5 -43t-81 -15.5t-81 15.5t-65.5 43t-43 64.5t-13.5 80zM104 1272q0 68 47.5 115t114.5 47 q68 0 115 -47.5t47 -114.5q0 -68 -47 -115t-115 -47t-115 47t-47 115z" />
<glyph unicode="&#xa2;" horiz-adv-x="829" d="M61 717q0 82 24 153.5t69 127t109.5 90t144.5 40.5v306h14v-304h22q68 0 126.5 -18t102.5 -49t69.5 -73t25.5 -89q0 -55 -39 -94t-94 -39t-94 39t-39 94t39 94q14 14 28.5 29.5t8.5 40.5q-6 29 -40 42t-65 13q-33 0 -51 -8v-790q18 -8 51 -9q27 0 61.5 11.5t43.5 44.5 q6 25 -8.5 40t-28.5 29q-39 39 -39 94t39 94.5t94 39.5t94 -39t39 -95q0 -47 -25.5 -89t-69.5 -72.5t-102.5 -49t-126.5 -18.5h-22v-303h-14v305q-80 6 -144.5 41t-109.5 90.5t-69 127t-24 153.5zM326 608q0 -129 20.5 -193.5t61.5 -86.5v778q-41 -23 -61.5 -87.5 t-20.5 -193.5v-108v-109z" />
<glyph unicode="&#xa3;" horiz-adv-x="1171" d="M61 0q94 82 141.5 169t63 176t7 180t-24.5 184h-154v14h152q-16 80 -30.5 157.5t-20.5 155.5q-10 106 30.5 181t109 123.5t154.5 71t170 22.5q111 0 191 -30t123 -61q59 -41 98 -96t39 -119q0 -66 -48 -113.5t-116 -47.5q-66 0 -114 48t-48 113q0 39 15.5 71t42.5 54 q16 14 31.5 35t11.5 49q-4 20 -24.5 36t-52.5 27t-71 16t-78 5q-33 0 -63.5 -15t-52 -49t-30.5 -87t3 -127q37 -231 2 -420h215v-14h-219q-27 -139 -88 -259t-150 -243q31 35 58.5 69.5t58.5 61.5t69 43t89 16q37 0 72.5 -7t71.5 -15t75 -15.5t82 -7.5q78 0 136.5 24.5 t58.5 78.5h16q2 -8 7 -42t3 -82t-13 -103.5t-43 -102.5t-86 -82t-138 -41q-68 -6 -128.5 6t-122 30.5t-127 34t-145.5 15.5q-61 0 -106 -25.5t-86 -62.5h-17z" />
<glyph unicode="&#xa4;" horiz-adv-x="1030" d="M61 272l158 158q-53 55 -85 129t-32 158t32 157.5t85 129.5l-158 157l11 10l157 -157q55 53 128 83.5t159 30.5q84 0 156.5 -30.5t130.5 -83.5l155 157l11 -10l-158 -157q55 -55 86 -129t31 -158t-31 -158t-86 -129l158 -158l-11 -10l-155 158q-57 -53 -130 -85t-157 -32 q-86 0 -158.5 32t-128.5 85l-157 -158zM119 717q0 -82 31.5 -155t85 -126t126 -85t154.5 -32t153.5 32t125 85t85 126t31.5 155t-31.5 153.5t-85 126t-125 85t-153.5 30.5t-154.5 -30.5t-126 -85t-85 -126t-31.5 -153.5z" />
<glyph unicode="&#xa5;" horiz-adv-x="1374" d="M61 1421v13h29h129h291v-13q-25 0 -25 -26q0 -8 4 -13l334 -573l260 442q16 29 17 58q0 47 -33 79.5t-80 32.5v13h326v-13q-61 0 -109.5 -34.5t-79.5 -86.5l-286 -491v-102h297v-15h-297v-106h297v-15h-297v-262v-246q0 -23 14 -37t37 -14v-12h-29h-170h-229v12 q23 0 37 14.5t14 36.5v508h-272v15h272v106h-272v15h268l-406 694q-12 20 -41 20z" />
<glyph unicode="&#xa6;" horiz-adv-x="137" d="M61 0v655h15v-655h-15zM61 778v656h15v-656h-15z" />
<glyph unicode="&#xa7;" horiz-adv-x="729" d="M61 201q0 45 31 76.5t76 31.5t76.5 -31.5t31.5 -76.5q0 -49 -38 -82q-10 -10 -20.5 -22.5t-6.5 -33.5q4 -27 49 -41t98 -14q35 0 64 13.5t44 38t14 58.5t-23 75q-35 66 -101.5 120t-132 110t-114 118.5t-48.5 144.5q0 90 43 146.5t109 85.5q-61 53 -106.5 114.5 t-45.5 138.5q0 70 28 120t72 82t98 46.5t110 14.5q74 0 127 -20t82 -40q41 -29 65.5 -64.5t24.5 -76.5q0 -45 -31 -77t-76 -32t-76.5 32t-31.5 77q0 49 39 82q10 10 20 22.5t6 32.5q-4 27 -50 41t-99 14q-35 0 -62.5 -13t-43 -37.5t-14.5 -58.5t23 -75q35 -66 101.5 -120 t132 -110.5t114 -119t48.5 -143.5q0 -90 -43 -146.5t-109 -85.5q61 -53 106.5 -114.5t45.5 -139.5q0 -70 -28 -120t-72 -81.5t-99 -46t-111 -14.5q-72 0 -125 19.5t-81 39.5q-41 29 -66 65t-25 77zM250 824.5q2 -31.5 22 -68.5q31 -57 85.5 -105.5t113.5 -95.5q10 23 8 53.5 t-22 69.5q-31 57 -85.5 105t-113.5 96q-10 -23 -8 -54.5z" />
<glyph unicode="&#xa8;" horiz-adv-x="634" d="M61 1212q0 43 30 73t73 30q41 0 71.5 -30t30.5 -73q0 -41 -30.5 -70.5t-71.5 -29.5q-43 0 -73 29.5t-30 70.5zM369 1212q0 43 29.5 73t72.5 30q41 0 71.5 -30t30.5 -73q0 -41 -30.5 -70.5t-71.5 -29.5q-43 0 -72.5 29.5t-29.5 70.5z" />
<glyph unicode="&#xa9;" horiz-adv-x="542" d="M61 1227q0 43 16.5 81t45.5 66.5t66.5 45t80.5 16.5t82 -16.5t68 -45t45 -66.5t16 -81t-16 -81t-45 -66.5t-68 -45t-82 -16.5t-80.5 16.5t-66.5 45t-45.5 66.5t-16.5 81zM68 1227q0 -43 16 -80t44 -64.5t64.5 -43t77.5 -15.5q86 0 145.5 58.5t59.5 144.5t-59.5 144.5 t-145.5 58.5q-41 0 -77.5 -15.5t-64.5 -43.5t-44 -64.5t-16 -79.5zM145 1227q0 -66 35 -110t96 -44q23 0 40.5 6t27.5 15q29 18 29 45q0 14 -10.5 24.5t-24.5 10.5q-16 0 -25.5 -10.5t-9.5 -24.5q0 -18 12 -27q4 -4 7.5 -8t1.5 -10q0 -10 -19 -15q-8 -4 -20 -4 q-27 0 -42.5 20.5t-15.5 82.5v49v49q0 61 15.5 81.5t42.5 20.5q12 0 20 -4q18 -4 19 -14q2 -8 -9 -19q-12 -10 -12 -26q0 -14 9.5 -24.5t25.5 -10.5q14 0 24.5 10t10.5 25q0 27 -29 45q-10 8 -27.5 14t-40.5 6q-61 0 -96 -43.5t-35 -109.5z" />
<glyph unicode="&#xaa;" horiz-adv-x="452" d="M63 1165q4 45 38 65.5t73 33.5q41 12 57.5 23t22.5 22v39q0 41 -9 62.5t-38 16.5q-33 -4 -37 -22q-4 -10 3 -18.5t13 -12.5q16 -20 17 -43q0 -25 -17.5 -42t-42.5 -17t-42 17.5t-17 41.5q0 43 43 73t102 30t101.5 -30t42.5 -73v-211v-4v-20v-6q0 -20 18 -21v-4h-82 q-45 0 -53 39q-29 -33 -82 -39q-47 -4 -81 22.5t-30 77.5zM178 1165q0 -57 25 -68t45 5q2 2 4 3t4 3q0 6 -1 11t-1 11v29v144q-10 -14 -23.5 -23.5t-24.5 -23t-19.5 -34t-8.5 -57.5z" />
<glyph unicode="&#xab;" horiz-adv-x="638" d="M61 694l316 316h20l-254 -316l254 -315h-20zM240 694l317 316h21l-256 -316l256 -315h-21z" />
<glyph unicode="&#xac;" horiz-adv-x="1030" d="M61 569v156h752h156v-156v-284h-156v284h-752z" />
<glyph unicode="&#xad;" horiz-adv-x="704" d="M61 498v14h582v-14h-582z" />
<glyph unicode="&#xae;" horiz-adv-x="542" d="M61 1227q0 43 16.5 81t45.5 66.5t66.5 45t80.5 16.5t82 -16.5t68 -45t45 -66.5t16 -81t-16 -81t-45 -66.5t-68 -45t-82 -16.5t-80.5 16.5t-66.5 45t-45.5 66.5t-16.5 81zM68 1227q0 -43 16 -80t44 -64.5t64.5 -43t77.5 -15.5q86 0 145.5 58.5t59.5 144.5t-59.5 144.5 t-145.5 58.5q-41 0 -77.5 -15.5t-64.5 -43.5t-44 -64.5t-16 -79.5zM150 1085h59h29v2q-10 0 -11 13v20v31v43v25q20 0 27.5 -24t16 -50.5t24.5 -49t59 -22.5q23 0 38.5 7t19.5 14v2q-16 -12 -31 2q-16 16 -27.5 52t-27.5 54q-14 14 -27 17q68 12 68 79q0 37 -25 58.5 t-72 21.5h-43h-47h-30v-2q12 0 12 -10v-10v-162v-39v-37v-20q0 -12 -12 -13v-2zM227 1221v94v26v17v10q0 10 11 10h4h12h2q16 0 30.5 -17.5t14.5 -60.5q0 -45 -17.5 -62t-31.5 -17h-25z" />
<glyph unicode="&#xb0;" horiz-adv-x="391" d="M51 1290q0 59 42 101.5t102 42.5q59 0 102 -42t43 -102q0 -59 -43 -102t-102 -43t-101.5 43t-42.5 102zM68 1290q0 -53 36.5 -91t90.5 -38q53 0 91 38t38 91t-38 90t-91 37t-90 -37t-37 -90z" />
<glyph unicode="&#xb1;" horiz-adv-x="1030" d="M61 0v14h908v-14h-908zM61 537v14h908v-14h-908zM508 90v907h14v-907h-14z" />
<glyph unicode="&#xb2;" horiz-adv-x="598" d="M64.5 829.5q3.5 36.5 21.5 79.5t55 86q31 37 67 72t68.5 72t57 73.5t33.5 75.5q14 74 -12.5 106.5t-59.5 32.5q-41 0 -75 -10t-38 -33q-4 -14 4.5 -24t16.5 -17q31 -25 30 -61q0 -35 -23.5 -58.5t-57.5 -23.5q-35 0 -58.5 23.5t-23.5 58.5q0 31 19.5 57.5t47.5 49.5 q23 16 63 30.5t95 14.5q41 0 84 -11.5t78 -35t55 -61.5t16 -91q-6 -66 -45 -105.5t-92 -68.5t-113.5 -51.5t-109.5 -51.5t-69.5 -64.5t-24.5 -70.5q14 43 57 67.5t105 24.5q39 0 92 -11t96 -11q39 0 68.5 12.5t29.5 38.5h8q2 -6 5.5 -40t-7 -73.5t-40 -73.5t-93.5 -40 q-35 -2 -67.5 4t-63.5 15t-58.5 16.5t-49.5 7.5q-31 0 -45.5 -13.5t-16.5 -29.5h-8q-12 18 -18.5 47t-3 65.5z" />
<glyph unicode="&#xb3;" horiz-adv-x="614" d="M61 868q0 35 24 58.5t58 23.5q33 0 56.5 -23.5t23.5 -58.5q0 -39 -28 -61q-8 -8 -16.5 -17.5t-4.5 -25.5q4 -14 23.5 -23.5t48.5 -13.5q20 -4 42.5 10.5t41 42t30 66.5t11.5 86q0 76 -45 119t-119 24l-2 8q25 12 50.5 35t47 52.5t35.5 63.5t18 71q4 47 -13 84.5t-56 37.5 q-41 0 -75 -10t-38 -33q-4 -14 4 -24t17 -17q29 -25 28 -61q0 -35 -23.5 -58.5t-56.5 -23.5q-35 0 -58.5 23.5t-23.5 58.5q0 31 19.5 57.5t48.5 49.5q23 16 62.5 30.5t95.5 14.5q39 0 80 -7.5t75.5 -26t57 -48t22.5 -74.5q0 -35 -18.5 -62.5t-47 -47t-61 -34t-61.5 -22.5 q25 6 63.5 1t73.5 -25.5t59.5 -58.5t20.5 -97q-4 -49 -28.5 -89t-61.5 -67.5t-83 -43t-91 -15.5q-55 0 -95 14t-63 31q-29 23 -48.5 49.5t-19.5 56.5z" />
<glyph unicode="&#xb4;" horiz-adv-x="487" d="M61 1116q0 10 9 23l178 194q8 12 26 13h117q16 0 25.5 -10.5t9.5 -24.5q0 -18 -14 -29l-297 -197q-8 -4 -19 -4q-14 0 -24.5 9.5t-10.5 25.5z" />
<glyph unicode="&#xb5;" horiz-adv-x="1140" d="M61 -356q0 49 16.5 103t35 123t35 157t16.5 206v33v262v90v328q0 23 -14.5 37t-36.5 14v13h229q82 0 114.5 -41t32.5 -140v-211v-120v-277q0 -72 23 -106.5t56.5 -43t71.5 4t69 30.5q-6 31 -7 74v766q0 23 -15 37t-38 14v13h232q82 0 113.5 -41t31.5 -140v-211v-227v-328 q0 -23 15.5 -37t37.5 -14v-12h-229q-59 0 -93 21.5t-46 70.5q-68 -41 -146 -66.5t-145 -25.5q-47 0 -89 11.5t-75 35.5q10 -72 25.5 -129t30 -105.5t24.5 -89t10 -79.5q0 -59 -42 -100.5t-101 -41.5t-100.5 41t-41.5 101z" />
<glyph unicode="&#xb6;" horiz-adv-x="802" d="M61 1104q0 76 30 137.5t82 104.5t120.5 65.5t148.5 22.5h15h219h37h28v-13q-23 0 -37 -14t-14 -37v-250v-817v-303h-14v1421h-219v-301v-817v-303h-15v772q-80 0 -148.5 22.5t-120.5 65.5t-82 104.5t-30 139.5z" />
<glyph unicode="&#xb7;" horiz-adv-x="446" d="M61 717q0 68 47.5 115t114.5 47q68 0 115 -47t47 -115t-47 -115t-115 -47t-115 47t-47 115z" />
<glyph unicode="&#xb8;" horiz-adv-x="352" d="M61 -162q0 16 10.5 27.5t26.5 11.5t27.5 -11t11.5 -28q0 -14 -14 -28q-4 -4 -8 -8.5t-2 -10.5q2 -14 34 -18q18 -4 38 24.5t20 71.5q0 35 -20.5 54.5t-55.5 10.5l-2 5q41 16 61 67h82q-10 -23 -34.5 -35t-47.5 -20q12 2 30 0t34 -11.5t27.5 -26.5t9.5 -44 q-4 -47 -43 -73.5t-80 -26.5q-27 0 -45.5 6t-28.5 14q-31 20 -31 49z" />
<glyph unicode="&#xb9;" horiz-adv-x="335" d="M61 717v6q27 0 27 27v30v27v63v342v127q0 27 -27 27v6q53 8 102.5 25.5t86.5 36.5v-226v-338v-90v-30q0 -27 24 -27v-6h-98h-115z" />
<glyph unicode="&#xba;" horiz-adv-x="731" d="M61 1075q0 92 26 160t68 112t96.5 65.5t113.5 21.5t114.5 -21.5t97 -65.5t67.5 -112t26 -160t-26 -159.5t-67.5 -111.5t-97 -65.5t-114.5 -21.5t-113.5 21.5t-96.5 65.5t-68 111.5t-26 159.5zM254 1036q2 -74 4 -132t18 -109q14 -41 37 -56.5t52 -15.5t52 15.5t36 56.5 q16 51 19 109.5t3 131.5v78q0 74 -3 132.5t-19 109.5q-12 41 -36 56t-52 15q-29 0 -51.5 -15t-37.5 -56q-16 -51 -18 -109.5t-4 -132.5v-78z" />
<glyph unicode="&#xbb;" horiz-adv-x="638" d="M61 379l254 315l-254 316h21l315 -316l-315 -315h-21zM240 379l256 315l-256 316h20l318 -316l-318 -315h-20z" />
<glyph unicode="&#xbc;" horiz-adv-x="1339" d="M61 0l1199 1434h18l-1198 -1434h-19zM356 717v6q27 0 27 27v30v27v63v342v127q0 27 -27 27v6q53 8 103.5 25.5t85.5 36.5v-226v-338v-90v-30q0 -27 26 -27v-6h-100h-115zM657 154q27 59 59 117.5t58.5 113.5t46 106.5t21.5 94.5q2 53 -21.5 80.5t-40.5 27.5v6 q49 20 97.5 16.5t83.5 -28.5q23 -16 38 -43t17 -58.5t-10.5 -67.5t-44.5 -68q-27 -29 -63 -59t-76 -64.5t-80 -76.5t-72 -93h188v10v37v57q0 27 -27 27v6q51 8 99.5 25.5t83.5 35.5h6v-157v-31v-10h72v-4h-72v-76v-15v-30q0 -27 27 -27v-6h-101h-115v6q27 0 27 27v30v15v26 v50h-192h-2h-7z" />
<glyph unicode="&#xbd;" horiz-adv-x="1339" d="M61 10l1199 1434h18l-1198 -1434h-19zM356 727q27 0 27 25v118v9v344v133q0 27 -27 26q53 8 103.5 25.5t85.5 36.5v-227v-336v-7v-122q0 -25 26 -25h-215zM780 111q4 39 20.5 82t57.5 90q31 37 67 71.5t68.5 70.5t57 73t32.5 77q14 74 -12.5 110t-58.5 36q41 0 84 -11.5 t77.5 -35t54 -61.5t15.5 -91q-6 -66 -45 -105.5t-92 -68.5t-113.5 -51t-109.5 -51q-49 -31 -74 -66t-29 -69zM784.5 47q-8.5 29 6.5 66q14 41 57 65.5t104 24.5q39 0 91.5 -11.5t95.5 -11.5q39 0 72.5 11.5t33.5 39.5q2 -6 5 -39.5t-7 -73.5t-39.5 -74t-93.5 -40 q-35 -4 -67.5 3t-63.5 15.5t-57.5 16.5t-49.5 8q-31 0 -48 -13.5t-21 -29.5q-10 14 -18.5 43zM786 567q0 33 19.5 59.5t48.5 49.5q16 10 41 21.5t59 17.5q-51 -10 -55 -43q-4 -14 4 -24.5t17 -16.5q29 -25 28 -64q0 -33 -23.5 -56.5t-56.5 -23.5q-35 0 -58.5 24t-23.5 56z " />
<glyph unicode="&#xbe;" horiz-adv-x="1339" d="M61 0l1199 1434h18l-1198 -1434h-19zM80 868q0 35 23.5 58.5t58.5 23.5t58.5 -23.5t23.5 -58.5q0 -37 -29 -61q-10 -8 -17.5 -17.5t-4.5 -25.5q4 -14 24.5 -23.5t48.5 -13.5q20 -4 42 10.5t40.5 42t29.5 66.5t11 86q0 76 -45 119t-119 24l-2 8q27 12 52.5 35t47 52.5 t36 63.5t16.5 71q4 47 -12.5 84.5t-57.5 37.5t-74.5 -10t-37.5 -33q-2 -14 5 -24t17 -17q12 -12 20.5 -27.5t8.5 -33.5q0 -35 -23.5 -58.5t-58.5 -23.5t-58.5 23.5t-23.5 58.5q0 31 19.5 57.5t50.5 49.5q23 16 61.5 30.5t93.5 14.5q39 0 80 -7.5t76 -26t57.5 -48t22.5 -74.5 q0 -35 -18.5 -62.5t-46 -47t-60.5 -34t-62 -22.5q25 6 64 1t73.5 -25.5t59 -58.5t20.5 -97q-4 -49 -28.5 -89t-62.5 -67.5t-84 -43t-91 -15.5q-55 0 -93.5 14.5t-61.5 30.5q-31 23 -50.5 49.5t-19.5 56.5zM657 154q27 59 59 117.5t58.5 113.5t46 106.5t21.5 94.5 q2 53 -21.5 80.5t-40.5 27.5v6q49 20 97.5 16.5t83.5 -28.5q23 -16 38 -43t17 -58.5t-10.5 -67.5t-44.5 -68q-27 -29 -63 -59t-76 -64.5t-80 -76.5t-72 -93h188v10v37v57q0 27 -27 27v6q51 8 99.5 25.5t83.5 35.5h6v-157v-31v-10h72v-4h-72v-76v-15v-30q0 -27 27 -27v-6 h-101h-115v6q27 0 27 27v30v15v26v50h-192h-2h-7z" />
<glyph unicode="&#xbf;" horiz-adv-x="1038" d="M61 145q0 84 38 157t95.5 136.5t124 119.5t124 108.5t95 101.5t37.5 98t-34.5 84t-85.5 35q-55 0 -90 -39l-9 6q41 47 99.5 75t124.5 28q61 0 114.5 -22.5t93 -62.5t63 -93.5t23.5 -114.5q0 -86 -27.5 -154.5t-70.5 -127t-97 -110t-108.5 -103.5t-105.5 -107.5 t-86 -120.5q-35 -63 -35 -114.5t22.5 -88.5t64.5 -56.5t95 -19.5q39 0 78 5.5t71 16.5t52.5 26.5t24.5 35.5q6 29 -9.5 49.5t-31.5 34.5q-57 47 -58 125q0 68 47.5 115t114.5 47q68 0 115 -47t47 -115q0 -63 -38 -117.5t-97 -95.5q-45 -33 -124 -62.5t-192 -29.5 q-84 0 -167 22.5t-148.5 70.5t-107.5 124t-42 180zM418 1272q0 68 47 115t115 47t114.5 -47.5t46.5 -114.5q0 -68 -46.5 -115t-114.5 -47t-115 47t-47 115zM874 760v2v2v-4z" />
<glyph unicode="&#xc0;" horiz-adv-x="1282" d="M61 0v10q39 0 73 15.5t61.5 41t48 58.5t32.5 68l54 157v4h2l366 1080l469 -1385q14 -39 54 -39v-10h-396v10q14 0 23.5 10.5t9.5 22.5q0 4 -1 6t-1 6l-98 287h-418l-49 -141q-6 -23 -6 -45q0 -59 42 -102.5t101 -43.5v-10h-367zM342 354h412l-205 607zM506 1737 q0 14 9 24.5t26 10.5h116q16 0 27 -13l178 -194q8 -12 8 -23q0 -16 -10 -25.5t-24 -9.5q-10 0 -19 4l-297 197q-14 10 -14 29z" />
<glyph unicode="&#xc1;" horiz-adv-x="1282" d="M61 0v10q39 0 73 15.5t61.5 41t48 58.5t32.5 68l54 157v4h2l366 1080l469 -1385q14 -39 54 -39v-10h-396v10q14 0 23.5 10.5t9.5 22.5q0 4 -1 6t-1 6l-98 287h-418l-49 -141q-6 -23 -6 -45q0 -59 42 -102.5t101 -43.5v-10h-367zM342 354h412l-205 607zM506 1542 q0 10 8 23l178 194q8 12 27 13h117q16 0 25 -10.5t9 -24.5q0 -18 -14 -29l-297 -197q-8 -4 -18 -4q-14 0 -24.5 9.5t-10.5 25.5z" />
<glyph unicode="&#xc2;" horiz-adv-x="1282" d="M61 0v10q39 0 73 15.5t61.5 41t48 58.5t32.5 68l54 157v4h2l366 1080l469 -1385q14 -39 54 -39v-10h-396v10q14 0 23.5 10.5t9.5 22.5q0 4 -1 6t-1 6l-98 287h-418l-49 -141q-6 -23 -6 -45q0 -59 42 -102.5t101 -43.5v-10h-367zM342 354h412l-205 607zM475 1542 q0 12 10 23l177 194q12 12 26 13q14 0 25 -13l178 -194q10 -10 10 -23q0 -16 -10 -25.5t-25 -9.5q-8 0 -20 4l-158 107l-160 -107q-8 -4 -18 -4q-14 0 -24.5 9.5t-10.5 25.5z" />
<glyph unicode="&#xc3;" horiz-adv-x="1282" d="M61 0v10q39 0 73 15.5t61.5 41t48 58.5t32.5 68l54 157v4h2l366 1080l469 -1385q14 -39 54 -39v-10h-396v10q14 0 23.5 10.5t9.5 22.5q0 4 -1 6t-1 6l-98 287h-418l-49 -141q-6 -23 -6 -45q0 -59 42 -102.5t101 -43.5v-10h-367zM342 354h412l-205 607zM459 1569v30 q0 57 40 97.5t97 40.5q37 0 65.5 -16.5t55 -35t52.5 -35t60 -16.5q33 0 55.5 22.5t22.5 55.5h11v-33q0 -57 -40 -97t-98 -40q-47 0 -78.5 16.5t-57.5 36t-48.5 36t-48.5 16.5q-33 0 -55.5 -22.5t-22.5 -55.5h-10z" />
<glyph unicode="&#xc4;" horiz-adv-x="1282" d="M61 0h367v10q-59 0 -101 43t-42 103q0 23 6 45l49 141h418l98 -287q0 -4 1 -6t1 -6q0 -12 -9 -22.5t-24 -10.5v-10h396v10q-40 0 -54 39l-469 1385l-366 -1080h-2v-4l-54 -157q-12 -35 -32.5 -68t-48 -58.5t-61.5 -41t-73 -15.5v-10zM342 354l207 607l205 -607h-412z M432 1638q0 43 31 73t72 30t71.5 -30t30.5 -73q0 -41 -31 -70.5t-71 -29.5q-41 0 -72 29.5t-31 70.5zM739 1638q0 43 30 73t73 30q41 0 71.5 -30t30.5 -73q0 -41 -30.5 -70.5t-71.5 -29.5q-43 0 -73 29.5t-30 70.5z" />
<glyph unicode="&#xc5;" horiz-adv-x="1282" d="M61 0v10q39 0 73 15.5t61.5 41t48 58.5t32.5 68l54 157v4h2l366 1080l469 -1385q14 -39 54 -39v-10h-396v10q14 0 23.5 10.5t9.5 22.5q0 4 -1 6t-1 6l-98 287h-418l-49 -141q-6 -23 -6 -45q0 -59 42 -102.5t101 -43.5v-10h-367zM342 354h412l-205 607zM565 1638 q0 55 33 94.5t90 39.5t90 -39t33 -95q0 -55 -33 -93t-90 -38t-90 38t-33 93zM649 1604q0 -92 39 -93q39 0 39 93v34v35q0 94 -39 94t-39 -94v-35v-34z" />
<glyph unicode="&#xc6;" horiz-adv-x="1705" d="M61 0v10q78 0 135.5 49.5t102.5 133.5l598 1241h41h405h60h242v-256h-11q0 51 -19.5 95t-52 76.5t-76.5 52t-95 19.5h-123q-23 0 -38.5 -14t-15.5 -37v-188v-64v-215v-182h68q41 0 77 15.5t62.5 43t42 63.5t15.5 77h12v-408h-12q0 84 -57.5 141.5t-139.5 57.5h-68v-396 v-129v-18v-105q0 -23 15.5 -37t38.5 -14h49h74q51 0 95 19.5t76.5 52.5t52 77t19.5 93h11v-254h-707h-98v12q23 0 37 14.5t14 36.5v52v596h-330l-248 -512q-12 -29 -12 -58q0 -53 38 -92t91 -39v-10h-369zM565 721h326v176v190v308z" />
<glyph unicode="&#xc7;" horiz-adv-x="1181" d="M61 696q0 150 42 280t121 227t191.5 153.5t254.5 56.5q113 0 191.5 -29.5t123.5 -60.5q59 -41 97 -96.5t38 -118.5q0 -66 -47 -114t-115 -48t-114.5 48t-46.5 114q0 39 15 70.5t42 54.5q16 14 31.5 34.5t11.5 49.5q-6 27 -29.5 43t-60.5 26q-16 4 -43 8.5t-55 4.5 q-59 0 -107.5 -19.5t-82.5 -73t-53.5 -145.5t-19.5 -235v-230v-229q0 -145 19.5 -236.5t53.5 -144.5t82 -72.5t108 -19.5q29 0 55.5 4t42.5 8q37 10 60.5 26.5t29.5 43.5q4 29 -11.5 49t-31.5 35q-27 23 -42 55.5t-15 69.5q0 68 47 114.5t114 46.5q68 0 115 -47t47 -114 q0 -63 -38 -117.5t-97 -95.5q-43 -31 -118.5 -60.5t-184.5 -31.5q-12 -18 -34.5 -30.5t-43.5 -19.5q12 2 29.5 0t34 -11t28 -26.5t9.5 -44.5q-4 -47 -43 -73.5t-80 -26.5q-27 0 -45.5 6t-28.5 15q-31 20 -31 49q0 16 10.5 27.5t26.5 11.5t27.5 -11.5t11.5 -27.5 q0 -14 -14 -29q-4 -4 -7.5 -8t-3.5 -10q2 -14 35 -19q20 -4 39 24.5t19 71.5q0 35 -20.5 54.5t-55.5 11.5v4q37 16 59 66q-127 12 -227.5 73.5t-171 156.5t-107.5 219t-37 263z" />
<glyph unicode="&#xc8;" horiz-adv-x="929" d="M61 0v12q23 0 37.5 14.5t14.5 36.5v52v782v190v283q0 23 -14.5 37t-37.5 14v13h101h405h60h241v-256h-12q0 51 -19.5 95t-52 76.5t-76.5 52t-94 19.5h-125q-23 0 -37 -14t-14 -37v-188v-64v-215v-182h66q41 0 76.5 15.5t63.5 43t43 63.5t15 77h11v-408h-11q0 41 -15 78 t-43 63.5t-63.5 42t-76.5 15.5h-66v-396v-129v-18v-105q0 -23 14.5 -37t36.5 -14h50h75q49 0 93.5 19.5t77 52.5t52 77t19.5 93h12v-254h-706h-101zM272 1737q0 14 9.5 24.5t25.5 10.5h117q16 0 27 -13l178 -194q8 -12 8 -23q0 -16 -10.5 -25.5t-24.5 -9.5q-10 0 -18 4 l-297 197q-14 10 -15 29z" />
<glyph unicode="&#xc9;" horiz-adv-x="929" d="M61 0v12q23 0 37.5 14.5t14.5 36.5v52v782v190v283q0 23 -14.5 37t-37.5 14v13h101h405h60h241v-256h-12q0 51 -19.5 95t-52 76.5t-76.5 52t-94 19.5h-125q-23 0 -37 -14t-14 -37v-188v-64v-215v-182h66q41 0 76.5 15.5t63.5 43t43 63.5t15 77h11v-408h-11q0 41 -15 78 t-43 63.5t-63.5 42t-76.5 15.5h-66v-396v-129v-18v-105q0 -23 14.5 -37t36.5 -14h50h75q49 0 93.5 19.5t77 52.5t52 77t19.5 93h12v-254h-706h-101zM272 1542q0 10 9 23l178 194q8 12 26 13h117q16 0 25.5 -10.5t9.5 -24.5q0 -18 -14 -29l-297 -197q-8 -4 -19 -4 q-14 0 -24.5 9.5t-10.5 25.5z" />
<glyph unicode="&#xca;" horiz-adv-x="929" d="M61 0v12q23 0 37.5 14.5t14.5 36.5v52v782v190v283q0 23 -14.5 37t-37.5 14v13h101h405h60h241v-256h-12q0 51 -19.5 95t-52 76.5t-76.5 52t-94 19.5h-125q-23 0 -37 -14t-14 -37v-188v-64v-215v-182h66q41 0 76.5 15.5t63.5 43t43 63.5t15 77h11v-408h-11q0 41 -15 78 t-43 63.5t-63.5 42t-76.5 15.5h-66v-396v-129v-18v-105q0 -23 14.5 -37t36.5 -14h50h75q49 0 93.5 19.5t77 52.5t52 77t19.5 93h12v-254h-706h-101zM242 1542q0 12 10 23l176 194q12 12 27 13q14 0 24 -13l178 -194q10 -10 11 -23q0 -16 -10.5 -25.5t-24.5 -9.5q-8 0 -21 4 l-157 107l-160 -107q-8 -4 -19 -4q-14 0 -24 9.5t-10 25.5z" />
<glyph unicode="&#xcb;" horiz-adv-x="929" d="M61 0h101h706v254h-12q0 -49 -19.5 -93t-52 -77t-76.5 -52.5t-94 -19.5h-75h-50q-23 0 -37 14.5t-14 36.5v105v18v129v396h66q41 0 76.5 -15.5t63.5 -42t43 -63.5t15 -78h11v408h-11q0 -41 -15 -77t-43 -63.5t-63.5 -43t-76.5 -15.5h-66v182v215v64v188q0 23 14.5 37 t36.5 14h125q49 0 93.5 -19.5t77 -52t52 -76.5t19.5 -95h12v256h-241h-60h-405h-101v-13q23 0 37.5 -14t14.5 -37v-283v-190v-782v-52q0 -23 -14.5 -37t-37.5 -14v-12zM199 1638q0 43 30.5 73t71.5 30t71.5 -30t30.5 -73q0 -41 -30.5 -70.5t-71.5 -29.5t-71.5 29.5 t-30.5 70.5zM506 1638q0 43 29.5 73t72.5 30q41 0 72 -30t31 -73q0 -41 -31 -70.5t-72 -29.5q-43 0 -72.5 29.5t-29.5 70.5z" />
<glyph unicode="&#xcc;" horiz-adv-x="550" d="M61 0v12q23 0 37.5 14.5t14.5 36.5v246v815v246q0 23 -14.5 37t-37.5 14v13h230h170h28v-13q-23 0 -37 -14t-14 -37v-246v-815v-246q0 -23 14.5 -37t36.5 -14v-12h-28h-170h-230zM82 1737q0 14 10 24.5t25 10.5h119q14 0 24 -13l178 -194q10 -10 11 -23 q0 -16 -10.5 -25.5t-24.5 -9.5q-8 0 -21 4l-295 197q-16 10 -16 29z" />
<glyph unicode="&#xcd;" horiz-adv-x="550" d="M61 0v12q23 0 37.5 14.5t14.5 36.5v246v815v246q0 23 -14.5 37t-37.5 14v13h230h170h28v-13q-23 0 -37 -14t-14 -37v-246v-815v-246q0 -23 14.5 -37t36.5 -14v-12h-28h-170h-230zM82 1542q0 12 10 23l178 194q8 12 25 13h119q14 0 24.5 -10.5t10.5 -24.5q0 -18 -17 -29 l-295 -197q-12 -4 -20 -4q-14 0 -24.5 9.5t-10.5 25.5z" />
<glyph unicode="&#xce;" horiz-adv-x="559" d="M61 1542q0 14 9 23l178 194q8 12 24 13q16 0 27 -13l178 -194q8 -12 8 -23q0 -35 -34 -35q-6 0 -19 4l-160 107l-157 -107q-12 -4 -19 -4q-35 0 -35 35zM70 0v12q23 0 37 14.5t14 36.5v246v815v246q0 23 -14.5 37t-36.5 14v13h229h170h29v-13q-23 0 -37.5 -14t-14.5 -37 v-246v-815v-246q0 -23 14.5 -37t37.5 -14v-12h-29h-170h-229z" />
<glyph unicode="&#xcf;" horiz-adv-x="632" d="M61 1638q0 43 30 73t73 30q41 0 70.5 -30t29.5 -73q0 -41 -29.5 -70.5t-70.5 -29.5q-43 0 -73 29.5t-30 70.5zM113 0v12q23 0 37 14.5t14 36.5v246v815v246q0 23 -14.5 37t-36.5 14v13h229h170h29v-13q-23 0 -37.5 -14t-14.5 -37v-246v-815v-246q0 -23 14.5 -37t37.5 -14 v-12h-29h-170h-229zM369 1638q0 43 29.5 73t70.5 30q43 0 72.5 -30t29.5 -73q0 -41 -29.5 -70.5t-72.5 -29.5q-41 0 -70.5 29.5t-29.5 70.5z" />
<glyph unicode="&#xd0;" horiz-adv-x="1431" d="M61 0v12q23 0 37.5 14.5t14.5 36.5v52v594h-52v16h52v172v190v179v30v23v51q0 23 -14.5 37t-37.5 14v13h93h499q147 0 278.5 -56.5t228.5 -154t153.5 -228.5t56.5 -278t-56.5 -278.5t-153.5 -228.5t-228 -153.5t-279 -56.5h-450h-142zM438 84q0 -29 20.5 -50.5 t51.5 -21.5h143q104 0 174 55.5t112 150.5t58.5 223t16.5 276q0 147 -16.5 275t-58.5 223.5t-111.5 150.5t-174.5 55h-143q-31 0 -51.5 -21.5t-20.5 -49.5v-232v-215v-178h189v-16h-189v-394v-231z" />
<glyph unicode="&#xd1;" horiz-adv-x="1382" d="M61 0v10q41 0 77 15.5t62.5 43t42 63.5t15.5 77v1161q0 23 -14.5 37t-36.5 14v13h375l530 -1350v1141q0 41 -15.5 76.5t-43 62.5t-63.5 42t-77 15v13h408v-13q-84 0 -141.5 -57t-57.5 -139v-1162q0 -23 15.5 -37t38.5 -14v-12h-377l-529 1350v-1141q0 -41 15.5 -77 t42 -63.5t62.5 -43t77 -15.5v-10h-406zM451 1569v30q0 57 39.5 97.5t97.5 40.5q39 0 67.5 -16.5t54 -35t52 -35t59.5 -16.5t55.5 22.5t22.5 55.5h12v-33q0 -57 -40 -97t-97 -40q-47 0 -79.5 16.5t-57.5 36t-47.5 36t-48.5 16.5q-35 0 -57.5 -22.5t-22.5 -55.5h-10z" />
<glyph unicode="&#xd2;" horiz-adv-x="1447" d="M61 717q0 150 45.5 279.5t131.5 227t208.5 154t276.5 56.5t276.5 -56.5t208.5 -154t132 -227.5t46 -279q0 -150 -46 -280t-132 -227t-208.5 -153.5t-276.5 -56.5t-276.5 56.5t-208.5 153.5t-131.5 227t-45.5 280zM446 487q0 -145 21.5 -236t58.5 -144.5t87.5 -73 t109.5 -19.5t110.5 19.5t88 73t58 144.5t21.5 236v230v229q0 143 -21.5 235.5t-58 145.5t-88 72.5t-110.5 19.5t-109.5 -19.5t-87.5 -72.5t-58.5 -145t-21.5 -236v-229v-230zM530 1737q0 14 10.5 24.5t24.5 10.5h119q14 0 25 -13l178 -194q10 -10 10 -23q0 -16 -10 -25.5 t-25 -9.5q-8 0 -20 4l-295 197q-16 10 -17 29z" />
<glyph unicode="&#xd3;" horiz-adv-x="1447" d="M61 717q0 150 45.5 279.5t131.5 227t208.5 154t276.5 56.5t276.5 -56.5t208.5 -154t132 -227.5t46 -279q0 -150 -46 -280t-132 -227t-208.5 -153.5t-276.5 -56.5t-276.5 56.5t-208.5 153.5t-131.5 227t-45.5 280zM446 487q0 -145 21.5 -236t58.5 -144.5t87.5 -73 t109.5 -19.5t110.5 19.5t88 73t58 144.5t21.5 236v230v229q0 143 -21.5 235.5t-58 145.5t-88 72.5t-110.5 19.5t-109.5 -19.5t-87.5 -72.5t-58.5 -145t-21.5 -236v-229v-230zM530 1542q0 12 11 23l178 194q8 12 24 13h119q14 0 24.5 -10.5t10.5 -24.5q0 -18 -16 -29 l-295 -197q-12 -4 -21 -4q-14 0 -24.5 9.5t-10.5 25.5z" />
<glyph unicode="&#xd4;" horiz-adv-x="1447" d="M61 717q0 150 45.5 279.5t131.5 227t208.5 154t276.5 56.5t276.5 -56.5t208.5 -154t132 -227.5t46 -279q0 -150 -46 -280t-132 -227t-208.5 -153.5t-276.5 -56.5t-276.5 56.5t-208.5 153.5t-131.5 227t-45.5 280zM446 487q0 -145 21.5 -236t58.5 -144.5t87.5 -73 t109.5 -19.5t110.5 19.5t88 73t58 144.5t21.5 236v230v229q0 143 -21.5 235.5t-58 145.5t-88 72.5t-110.5 19.5t-109.5 -19.5t-87.5 -72.5t-58.5 -145t-21.5 -236v-229v-230zM502 1542q0 14 8 23l178 194q8 12 25 13q16 0 26 -13l179 -194q8 -12 8 -23q0 -35 -35 -35 q-6 0 -19 4l-159 107l-158 -107q-12 -4 -18 -4q-35 0 -35 35z" />
<glyph unicode="&#xd5;" horiz-adv-x="1447" d="M61 717q0 150 45.5 279.5t131.5 227t208.5 154t276.5 56.5t276.5 -56.5t208.5 -154t132 -227.5t46 -279q0 -150 -46 -280t-132 -227t-208.5 -153.5t-276.5 -56.5t-276.5 56.5t-208.5 153.5t-131.5 227t-45.5 280zM446 487q0 -145 21.5 -236t58.5 -144.5t87.5 -73 t109.5 -19.5t110.5 19.5t88 73t58 144.5t21.5 236v230v229q0 143 -21.5 235.5t-58 145.5t-88 72.5t-110.5 19.5t-109.5 -19.5t-87.5 -72.5t-58.5 -145t-21.5 -236v-229v-230zM483 1569v30q0 57 40 97.5t98 40.5q39 0 67.5 -16.5t54 -35t52 -35t59.5 -16.5t55.5 22.5 t22.5 55.5h12v-33q0 -57 -40 -97t-97 -40q-47 0 -80 16.5t-57.5 36t-47 36t-49.5 16.5q-35 0 -57 -22.5t-22 -55.5h-11z" />
<glyph unicode="&#xd6;" horiz-adv-x="1447" d="M61 717q0 -150 45.5 -280t131.5 -227t208.5 -153.5t276.5 -56.5t276.5 56.5t208.5 153.5t132 227t46 280t-46 279.5t-132 227t-208.5 154t-276.5 56.5t-276.5 -56.5t-208.5 -154t-131.5 -227.5t-45.5 -279zM446 487v230v229q0 143 21.5 235.5t58.5 145.5t87.5 72.5 t109.5 19.5t110.5 -19.5t88 -72.5t58 -145t21.5 -236v-229v-230q0 -145 -21.5 -236t-58 -144.5t-88 -73t-110.5 -19.5t-109.5 19.5t-87.5 73t-58.5 144.5t-21.5 236zM459 1638q0 43 29.5 73t72.5 30q41 0 71 -30t30 -73q0 -41 -30 -70.5t-71 -29.5q-43 0 -72.5 29.5 t-29.5 70.5zM766 1638q0 43 29.5 73t70.5 30q43 0 73 -30t30 -73q0 -41 -30 -70.5t-73 -29.5q-41 0 -70.5 29.5t-29.5 70.5z" />
<glyph unicode="&#xd7;" horiz-adv-x="774" d="M61 188l316 318l-316 315l11 10l315 -315l318 315l8 -10l-316 -315l316 -318l-8 -10l-318 318l-315 -318z" />
<glyph unicode="&#xd8;" horiz-adv-x="1447" d="M61 717q0 150 45.5 279.5t131.5 227t208.5 154t276.5 56.5q150 0 272 -54l74 172h18l-77 -180q180 -84 278 -259t98 -396q0 -150 -46 -280t-132 -227t-208.5 -153.5t-276.5 -56.5q-147 0 -272 53l-72 -172h-19l76 180q-180 84 -277.5 259.5t-97.5 396.5zM446 487 q0 -199 41 -305l463 1092q-37 86 -96 115.5t-131 29.5q-59 0 -109.5 -19.5t-87.5 -72.5t-58.5 -145t-21.5 -236v-229v-230zM496 160q39 -86 97 -116t130 -30q59 0 110.5 19.5t88 73t58 144.5t21.5 236v230v229q0 102 -11 177t-32 128z" />
<glyph unicode="&#xd9;" horiz-adv-x="1368" d="M61 1421v13h31h137h222h100v-13q-23 0 -38 -14t-15 -37v-653v-230q0 -156 21.5 -251t55 -145t76.5 -63.5t84 -4.5q197 39 280 213t83 481v164v344q0 82 -57.5 139t-139.5 57v13h406v-13q-82 0 -139.5 -57t-57.5 -139v-363v-145q0 -150 -20.5 -280t-74.5 -227 t-151.5 -153.5t-251.5 -56.5t-251 56.5t-152 153.5t-75.5 227t-20.5 280v653q0 23 -14.5 37t-37.5 14zM492 1737q0 14 9 24.5t25 10.5h117q16 0 27 -13l178 -194q8 -12 8 -23q0 -16 -10 -25.5t-25 -9.5q-10 0 -18 4l-297 197q-14 10 -14 29z" />
<glyph unicode="&#xda;" horiz-adv-x="1368" d="M61 1421v13h31h137h222h100v-13q-23 0 -38 -14t-15 -37v-653v-230q0 -156 21.5 -251t55 -145t76.5 -63.5t84 -4.5q197 39 280 213t83 481v164v344q0 82 -57.5 139t-139.5 57v13h406v-13q-82 0 -139.5 -57t-57.5 -139v-363v-145q0 -150 -20.5 -280t-74.5 -227 t-151.5 -153.5t-251.5 -56.5t-251 56.5t-152 153.5t-75.5 227t-20.5 280v653q0 23 -14.5 37t-37.5 14zM492 1542q0 10 8 23l178 194q8 12 27 13h116q16 0 25.5 -10.5t9.5 -24.5q0 -18 -14 -29l-297 -197q-8 -4 -19 -4q-14 0 -24 9.5t-10 25.5z" />
<glyph unicode="&#xdb;" horiz-adv-x="1368" d="M61 1421v13h31h137h222h100v-13q-23 0 -38 -14t-15 -37v-653v-230q0 -156 21.5 -251t55 -145t76.5 -63.5t84 -4.5q197 39 280 213t83 481v164v344q0 82 -57.5 139t-139.5 57v13h406v-13q-82 0 -139.5 -57t-57.5 -139v-363v-145q0 -150 -20.5 -280t-74.5 -227 t-151.5 -153.5t-251.5 -56.5t-251 56.5t-152 153.5t-75.5 227t-20.5 280v653q0 23 -14.5 37t-37.5 14zM461 1542q0 12 10 23l176 194q12 12 27 13q14 0 24 -13l179 -194q10 -10 10 -23q0 -16 -10.5 -25.5t-24.5 -9.5q-8 0 -21 4l-157 107l-160 -107q-8 -4 -18 -4 q-14 0 -24.5 9.5t-10.5 25.5z" />
<glyph unicode="&#xdc;" horiz-adv-x="1368" d="M61 1421q23 0 37.5 -14t14.5 -37v-653q0 -150 20.5 -280t75.5 -227t152.5 -153.5t250.5 -56.5q154 0 251.5 56.5t151.5 153.5t74.5 227t20.5 280v145v363q0 82 57.5 139t139.5 57v13h-406v-13q82 0 139.5 -57t57.5 -139v-344v-164q0 -307 -83 -481.5t-280 -212.5 q-41 -8 -84 5t-76.5 63t-55 145.5t-21.5 250.5v230v653q0 23 15 37t38 14v13h-100h-222h-137h-31v-13zM418 1638q0 43 30.5 73t71.5 30t72 -30t31 -73q0 -41 -31 -70.5t-72 -29.5t-71.5 29.5t-30.5 70.5zM725 1638q0 43 29.5 73t72.5 30q41 0 72 -30t31 -73q0 -41 -31 -70.5 t-72 -29.5q-43 0 -72.5 29.5t-29.5 70.5z" />
<glyph unicode="&#xdd;" horiz-adv-x="1374" d="M61 1421v13h29h129h291v-13q-25 0 -25 -26q0 -8 4 -13l334 -573l260 442q16 29 17 58q0 47 -33 79.5t-80 32.5v13h326v-13q-61 0 -109.5 -34.5t-79.5 -86.5l-286 -491v-500v-246q0 -23 14 -37t37 -14v-12h-29h-170h-229v12q23 0 37 14.5t14 36.5v635l-410 703 q-12 20 -41 20zM504 1542q0 12 10 23l178 194q8 12 25 13h119q14 0 24 -10.5t10 -24.5q0 -18 -16 -29l-295 -197q-12 -4 -20 -4q-14 0 -24.5 9.5t-10.5 25.5z" />
<glyph unicode="&#xde;" horiz-adv-x="1003" d="M61 0v12q23 0 37.5 14.5t14.5 36.5v246v393v244q0 23 -14.5 37t-37.5 14v13h230h170h28v-13q-23 0 -37 -14t-14 -37v-100h117q90 0 161.5 -26.5t122 -73t77 -109t26.5 -131.5q0 -72 -26.5 -133.5t-77 -107.5t-122 -72.5t-161.5 -26.5h-117v-103q0 -23 14.5 -37t36.5 -14 v-12h-28h-170h-230zM438 178h117q61 0 91 56.5t30 181.5v90v88q0 127 -30 182t-91 55h-117v-129v-393v-131z" />
<glyph unicode="&#xdf;" horiz-adv-x="1097" d="M61 0v12q23 0 37.5 14.5t14.5 36.5v52v100v682v190v232v51q0 23 -14.5 37t-37.5 14v13h142h286h117q63 0 128 -27t111 -73t67.5 -108.5t2.5 -131.5q-12 -45 -37.5 -80t-56 -62.5t-59.5 -52.5t-47 -49q-16 -25 -18.5 -51.5t20.5 -53.5q29 -31 80 -65.5t102 -80.5 t90 -105.5t45 -137.5q6 -80 -24.5 -145.5t-83 -112.5t-121 -72.5t-141.5 -25.5h-117v12q29 0 66.5 21.5t68.5 67.5t46 116t1 166q-12 80 -37.5 135t-50.5 98t-44 81t-19 81q0 35 16 69t37.5 70.5t42 79.5t31.5 97q14 82 3.5 143t-38 102t-67.5 61.5t-83 20.5h-31 q-23 0 -37 -14t-14 -37v-123v-65v-64v-215v-588v-129v-123q0 -23 14.5 -37t36.5 -14v-12h-286h-142z" />
<glyph unicode="&#xe0;" horiz-adv-x="1003" d="M53 272q6 61 35 104.5t70 75t92 53t104 38.5q109 33 157 65.5t64 61.5v102q0 117 -25.5 174.5t-103.5 46.5q-94 -10 -106 -65q-6 -29 12.5 -48.5t34.5 -35.5q23 -23 35 -51.5t12 -63.5q0 -68 -47 -115t-115 -47t-114.5 47.5t-46.5 114.5q0 57 30.5 108.5t85 89.5 t126 59.5t153.5 21.5t153.5 -21.5t125 -59.5t85 -89.5t31.5 -108.5v-577v-15v-53v-21q0 -23 14.5 -37t36.5 -14v-12h-229q-66 0 -98.5 24.5t-42.5 81.5q-41 -45 -100.5 -72.5t-127.5 -33.5q-66 -6 -123 9.5t-99 51t-64.5 89t-14.5 122.5zM319 1311q0 14 9.5 24.5t25.5 10.5 h117q16 0 27 -13l178 -194q8 -12 8 -23q0 -16 -10 -25.5t-25 -9.5q-10 0 -18 4l-297 197q-14 10 -15 29zM365 272q0 -78 19 -122t49 -62t62.5 -14t59.5 22q6 6 12 11.5t13 11.5q-2 14 -3.5 29.5t-1.5 31.5v78v391q-29 -37 -64.5 -62.5t-68 -61.5t-55 -94t-22.5 -159z" />
<glyph unicode="&#xe1;" horiz-adv-x="1003" d="M53 272q6 61 35 104.5t70 75t92 53t104 38.5q109 33 157 65.5t64 61.5v102q0 117 -25.5 174.5t-103.5 46.5q-94 -10 -106 -65q-6 -29 12.5 -48.5t34.5 -35.5q23 -23 35 -51.5t12 -63.5q0 -68 -47 -115t-115 -47t-114.5 47.5t-46.5 114.5q0 57 30.5 108.5t85 89.5 t126 59.5t153.5 21.5t153.5 -21.5t125 -59.5t85 -89.5t31.5 -108.5v-577v-15v-53v-21q0 -23 14.5 -37t36.5 -14v-12h-229q-66 0 -98.5 24.5t-42.5 81.5q-41 -45 -100.5 -72.5t-127.5 -33.5q-66 -6 -123 9.5t-99 51t-64.5 89t-14.5 122.5zM319 1116q0 10 9 23l178 194 q8 12 26 13h117q16 0 25.5 -10.5t9.5 -24.5q0 -18 -14 -29l-297 -197q-8 -4 -19 -4q-14 0 -24.5 9.5t-10.5 25.5zM365 272q0 -78 19 -122t49 -62t62.5 -14t59.5 22q6 6 12 11.5t13 11.5q-2 14 -3.5 29.5t-1.5 31.5v78v391q-29 -37 -64.5 -62.5t-68 -61.5t-55 -94t-22.5 -159 z" />
<glyph unicode="&#xe2;" horiz-adv-x="1003" d="M53 272q6 61 35 104.5t70 75t92 53t104 38.5q109 33 157 65.5t64 61.5v102q0 117 -25.5 174.5t-103.5 46.5q-94 -10 -106 -65q-6 -29 12.5 -48.5t34.5 -35.5q23 -23 35 -51.5t12 -63.5q0 -68 -47 -115t-115 -47t-114.5 47.5t-46.5 114.5q0 57 30.5 108.5t85 89.5 t126 59.5t153.5 21.5t153.5 -21.5t125 -59.5t85 -89.5t31.5 -108.5v-577v-15v-53v-21q0 -23 14.5 -37t36.5 -14v-12h-229q-66 0 -98.5 24.5t-42.5 81.5q-41 -45 -100.5 -72.5t-127.5 -33.5q-66 -6 -123 9.5t-99 51t-64.5 89t-14.5 122.5zM289 1116q0 12 10 23l176 194 q8 12 27 13q14 0 24 -13l179 -194q10 -10 10 -23q0 -16 -10.5 -25.5t-24.5 -9.5q-8 0 -21 4l-157 107l-160 -107q-8 -4 -18 -4q-14 0 -24.5 9.5t-10.5 25.5zM365 272q0 -78 19 -122t49 -62t62.5 -14t59.5 22q6 6 12 11.5t13 11.5q-2 14 -3.5 29.5t-1.5 31.5v78v391 q-29 -37 -64.5 -62.5t-68 -61.5t-55 -94t-22.5 -159z" />
<glyph unicode="&#xe3;" horiz-adv-x="1003" d="M53 272q6 61 35 104.5t70 75t92 53t104 38.5q109 33 157 65.5t64 61.5v102q0 117 -25.5 174.5t-103.5 46.5q-94 -10 -106 -65q-6 -29 12.5 -48.5t34.5 -35.5q23 -23 35 -51.5t12 -63.5q0 -68 -47 -115t-115 -47t-114.5 47.5t-46.5 114.5q0 57 30.5 108.5t85 89.5 t126 59.5t153.5 21.5t153.5 -21.5t125 -59.5t85 -89.5t31.5 -108.5v-577v-15v-53v-21q0 -23 14.5 -37t36.5 -14v-12h-229q-66 0 -98.5 24.5t-42.5 81.5q-41 -45 -100.5 -72.5t-127.5 -33.5q-66 -6 -123 9.5t-99 51t-64.5 89t-14.5 122.5zM303 1143v31q0 57 40 97t97 40 q39 0 68 -16.5t54.5 -35t52 -35t59.5 -16.5t56.5 22.5t23.5 55.5h10v-33q0 -57 -40 -97t-97 -40q-47 0 -80 16.5t-57.5 36t-47 36t-49.5 16.5q-33 0 -56.5 -22.5t-23.5 -55.5h-10zM365 272q0 -78 19 -122t49 -62t62.5 -14t59.5 22q6 6 12 11.5t13 11.5q-2 14 -3.5 29.5 t-1.5 31.5v78v391q-29 -37 -64.5 -62.5t-68 -61.5t-55 -94t-22.5 -159z" />
<glyph unicode="&#xe4;" horiz-adv-x="1003" d="M53 272q-8 -70 14.5 -123t64.5 -88.5t99.5 -51t122.5 -9.5q68 6 127.5 33.5t100.5 72.5q10 -57 42.5 -81.5t98.5 -24.5h229v12q-23 0 -37 14t-14 37v21v53v15v577q0 57 -31.5 108.5t-85 89.5t-125 59.5t-153.5 21.5t-153.5 -21.5t-126 -59.5t-85 -89.5t-30.5 -108.5 q0 -68 47 -115t114 -47q68 0 115 47.5t47 114.5q0 35 -12 63.5t-35 51.5q-16 16 -34.5 35.5t-12.5 48.5q12 55 106 65q78 10 103.5 -47t25.5 -174v-102q-16 -29 -64 -62t-157 -65q-53 -16 -104 -38t-92 -53.5t-70 -74.5t-35 -105zM246 1212q0 43 29.5 73t72.5 30 q41 0 72 -30t31 -73q0 -41 -31 -70.5t-72 -29.5q-43 0 -72.5 29.5t-29.5 70.5zM365 272q0 100 22.5 158.5t55 94.5t68.5 61.5t64 62.5v-391v-78q0 -16 1.5 -31.5t3.5 -29.5q-6 -6 -12.5 -11.5t-12.5 -11.5q-27 -18 -59.5 -22t-62.5 14t-49 62.5t-19 121.5zM553 1212 q0 43 29.5 73t72.5 30q41 0 72 -30t31 -73q0 -41 -31 -70.5t-72 -29.5q-43 0 -72.5 29.5t-29.5 70.5z" />
<glyph unicode="&#xe5;" horiz-adv-x="1003" d="M53 272q6 61 35 104.5t70 75t92 53t104 38.5q109 33 157 65.5t64 61.5v102q0 117 -25.5 174.5t-103.5 46.5q-94 -10 -106 -65q-6 -29 12.5 -48.5t34.5 -35.5q23 -23 35 -51.5t12 -63.5q0 -68 -47 -115t-115 -47t-114.5 47.5t-46.5 114.5q0 57 30.5 108.5t85 89.5 t126 59.5t153.5 21.5t153.5 -21.5t125 -59.5t85 -89.5t31.5 -108.5v-577v-15v-53v-21q0 -23 14.5 -37t36.5 -14v-12h-229q-66 0 -98.5 24.5t-42.5 81.5q-41 -45 -100.5 -72.5t-127.5 -33.5q-66 -6 -123 9.5t-99 51t-64.5 89t-14.5 122.5zM365 272q0 -78 19 -122t49 -62 t62.5 -14t59.5 22q6 6 12 11.5t13 11.5q-2 14 -3.5 29.5t-1.5 31.5v78v391q-29 -37 -64.5 -62.5t-68 -61.5t-55 -94t-22.5 -159zM379 1212q0 55 33 94.5t90 39.5t90 -39t33 -95q0 -55 -33 -93t-90 -38t-90 38t-33 93zM463 1178q0 -92 39 -93q37 0 37 93v34v35q0 94 -37 94 q-39 0 -39 -94v-35v-34z" />
<glyph unicode="&#xe6;" horiz-adv-x="1540" d="M53 274q6 61 35 104.5t70 75t92 53t104 38.5q109 33 157 65.5t64 61.5v102q0 117 -25.5 174.5t-103.5 46.5q-94 -10 -106 -65q-6 -29 12.5 -48.5t34.5 -35.5q23 -23 35 -51.5t12 -63.5q0 -68 -47 -115t-115 -47t-114.5 47.5t-46.5 114.5q0 57 30.5 108.5t85 89.5 t126 59.5t153.5 21.5q78 0 148.5 -20.5t123.5 -57.5q53 39 120 59.5t144 20.5q98 0 180.5 -36t141.5 -92.5t92 -128t33 -143.5h-592v-106v-133q0 -104 11.5 -173t34 -110t56 -58.5t80.5 -17.5h23q41 4 69.5 22.5t34.5 45.5q6 29 -11 48.5t-34 35.5q-23 23 -35 51.5t-12 63.5 q0 68 47 114.5t115 46.5t115 -47t47 -114q0 -59 -31 -109.5t-85 -89.5t-126 -60.5t-154 -21.5h-18t-16 2h-217q-94 0 -138.5 32t-60.5 85q-45 -53 -107.5 -82t-130.5 -35q-66 -6 -123 9.5t-99 51t-64.5 89t-14.5 122.5zM365 274q0 -78 19 -121.5t49 -62t62.5 -14.5t59.5 22 q6 4 16.5 13.5t16.5 19.5q-8 27 -10.5 56.5t-2.5 60.5v256v2v2v143q-29 -37 -64.5 -62.5t-68 -61t-55 -94t-22.5 -159.5zM897 625h291q0 53 -2 108t-12.5 103.5t-31 87.5t-57.5 61q-4 2 -15 6t-28 4q-16 0 -26 -4l-15 -6q-53 -27 -78.5 -107.5t-25.5 -238.5v-14z" />
<glyph unicode="&#xe7;" horiz-adv-x="964" d="M51 506q0 104 32 196.5t92.5 160t147.5 107.5t195 40q82 0 153.5 -21.5t125 -59.5t85 -89.5t31.5 -108.5q0 -68 -48 -115t-113 -47q-68 0 -116 47.5t-48 114.5q0 66 49 115q16 16 33.5 35.5t11.5 48.5q-6 27 -35 44t-69 21q-8 2 -23 2q-47 0 -81 -17t-56.5 -59 t-33.5 -111t-11 -173v-131v-133q0 -104 11 -173t33.5 -111t56.5 -59.5t81 -17.5q4 0 10 1t13 1q41 4 69.5 21.5t34.5 44.5q6 29 -11.5 48t-33.5 36q-49 49 -49 117q0 66 48 113.5t116 47.5q66 0 113.5 -48t47.5 -113q0 -53 -25.5 -100.5t-71.5 -84.5t-107.5 -61.5 t-133.5 -32.5q-12 -20 -35.5 -32.5t-43.5 -18.5q12 2 29.5 0t33.5 -11.5t27.5 -26.5t9.5 -44q-4 -47 -43 -73.5t-80 -26.5q-27 0 -45 6t-29 14q-31 20 -30 49q0 16 10 27.5t27 11.5q16 0 27 -11t11 -28q0 -14 -14 -28q-4 -4 -8 -8.5t-2 -10.5q2 -14 35 -18q18 -4 37.5 24.5 t19.5 71.5q0 35 -20.5 54.5t-55.5 10.5l-2 5q16 8 32.5 24.5t27.5 36.5q-102 4 -184.5 46t-139.5 109.5t-88 157.5t-31 193z" />
<glyph unicode="&#xe8;" horiz-adv-x="1015" d="M51 506q0 104 32 196.5t92.5 160t147.5 107.5t195 40q98 0 180 -36t141.5 -92.5t92.5 -128t33 -141.5h-592v-106v-133q0 -104 11 -173t33.5 -111t56.5 -59.5t81 -17.5q33 0 75 14.5t52 53.5q6 29 -11.5 48t-33.5 36q-49 49 -49 117q0 66 48 113.5t116 47.5 q66 0 113.5 -48t47.5 -113q0 -59 -31.5 -109.5t-85 -89.5t-125 -60.5t-153.5 -21.5q-109 0 -195.5 40t-147 108.5t-92.5 160.5t-32 197zM326 1311q0 14 9 24.5t25 10.5h117q16 0 27 -13l178 -194q8 -12 8 -23q0 -16 -10 -25.5t-25 -9.5q-10 0 -18 4l-297 197q-14 10 -14 29z M373 623h291q0 53 -2.5 108t-12.5 104.5t-31.5 88.5t-58.5 61q-4 2 -14 6t-27 4q-16 0 -27.5 -4t-15.5 -6q-53 -29 -77.5 -108.5t-24.5 -239.5v-14z" />
<glyph unicode="&#xe9;" horiz-adv-x="1015" d="M51 506q0 104 32 196.5t92.5 160t147.5 107.5t195 40q98 0 180 -36t141.5 -92.5t92.5 -128t33 -141.5h-592v-106v-133q0 -104 11 -173t33.5 -111t56.5 -59.5t81 -17.5q33 0 75 14.5t52 53.5q6 29 -11.5 48t-33.5 36q-49 49 -49 117q0 66 48 113.5t116 47.5 q66 0 113.5 -48t47.5 -113q0 -59 -31.5 -109.5t-85 -89.5t-125 -60.5t-153.5 -21.5q-109 0 -195.5 40t-147 108.5t-92.5 160.5t-32 197zM326 1116q0 10 8 23l178 194q8 12 27 13h116q16 0 25.5 -10.5t9.5 -24.5q0 -18 -14 -29l-297 -197q-8 -4 -19 -4q-14 0 -24 9.5 t-10 25.5zM373 623h291q0 53 -2.5 108t-12.5 104.5t-31.5 88.5t-58.5 61q-4 2 -14 6t-27 4q-16 0 -27.5 -4t-15.5 -6q-53 -29 -77.5 -108.5t-24.5 -239.5v-14z" />
<glyph unicode="&#xea;" horiz-adv-x="1015" d="M51 506q0 104 32 196.5t92.5 160t147.5 107.5t195 40q98 0 180 -36t141.5 -92.5t92.5 -128t33 -141.5h-592v-106v-133q0 -104 11 -173t33.5 -111t56.5 -59.5t81 -17.5q33 0 75 14.5t52 53.5q6 29 -11.5 48t-33.5 36q-49 49 -49 117q0 66 48 113.5t116 47.5 q66 0 113.5 -48t47.5 -113q0 -59 -31.5 -109.5t-85 -89.5t-125 -60.5t-153.5 -21.5q-109 0 -195.5 40t-147 108.5t-92.5 160.5t-32 197zM295 1116q0 12 10 23l176 194q12 12 27 13q14 0 24 -13l179 -194q10 -10 10 -23q0 -16 -10.5 -25.5t-24.5 -9.5q-8 0 -20 4l-158 107 l-160 -107q-8 -4 -18 -4q-14 0 -24.5 9.5t-10.5 25.5zM373 623h291q0 53 -2.5 108t-12.5 104.5t-31.5 88.5t-58.5 61q-4 2 -14 6t-27 4q-16 0 -27.5 -4t-15.5 -6q-53 -29 -77.5 -108.5t-24.5 -239.5v-14z" />
<glyph unicode="&#xeb;" horiz-adv-x="1015" d="M51 506q0 -104 32 -196.5t92.5 -161t147.5 -108.5t195 -40q82 0 153.5 21.5t125 60.5t85 89t31.5 110q0 66 -47.5 113.5t-113.5 47.5q-68 0 -116 -48t-48 -113q0 -68 49 -117q16 -16 33.5 -35.5t11.5 -48.5q-10 -39 -52 -53.5t-75 -14.5q-47 0 -81 17.5t-56.5 59.5 t-33.5 110.5t-11 173.5v133v106h592q0 70 -33 141.5t-92.5 128t-141.5 92.5t-180 36q-109 0 -195.5 -40t-147 -107.5t-92.5 -160t-32 -196.5zM252 1212q0 43 30.5 73t71.5 30t72 -30t31 -73q0 -41 -31 -70.5t-72 -29.5t-71.5 29.5t-30.5 70.5zM373 623v14q0 160 24.5 239.5 t77.5 108.5q4 2 15.5 6t27.5 4t26.5 -4t14.5 -6q37 -23 58.5 -61.5t31.5 -88t12.5 -104.5t2.5 -108h-291zM559 1212q0 43 29.5 73t73.5 30q41 0 71.5 -30t30.5 -73q0 -41 -31 -70.5t-71 -29.5q-43 0 -73 29.5t-30 70.5z" />
<glyph unicode="&#xec;" horiz-adv-x="530" d="M51 0v12q23 0 37 14.5t14 36.5v246v393v244q0 23 -14 37t-37 14v13h230h170h28v-13q-23 0 -37 -14t-14 -37v-244v-393v-246q0 -23 14.5 -37t36.5 -14v-12h-28h-170h-230zM82 1311q0 14 10 24.5t25 10.5h119q14 0 24 -13l178 -194q10 -10 11 -23q0 -16 -10.5 -25.5 t-24.5 -9.5q-8 0 -21 4l-295 197q-16 10 -16 29z" />
<glyph unicode="&#xed;" horiz-adv-x="530" d="M51 0v12q23 0 37 14.5t14 36.5v246v393v244q0 23 -14 37t-37 14v13h230h170h28v-13q-23 0 -37 -14t-14 -37v-244v-393v-246q0 -23 14.5 -37t36.5 -14v-12h-28h-170h-230zM82 1116q0 12 10 23l178 194q8 12 25 13h119q14 0 24.5 -10.5t10.5 -24.5q0 -18 -17 -29l-295 -197 q-12 -4 -20 -4q-14 0 -24.5 9.5t-10.5 25.5z" />
<glyph unicode="&#xee;" horiz-adv-x="612" d="M92 0v12q23 0 37 14.5t14 36.5v246v393v244q0 23 -14 37t-37 14v13h230h170h28v-13q-23 0 -37 -14t-14 -37v-244v-393v-246q0 -23 14.5 -37t36.5 -14v-12h-28h-170h-230zM94 1116q0 12 10 23l177 194q12 12 26 13q14 0 25 -13l178 -194q10 -10 10 -23q0 -16 -10 -25.5 t-25 -9.5q-8 0 -20 4l-158 107l-160 -107q-8 -4 -18 -4q-14 0 -24.5 9.5t-10.5 25.5z" />
<glyph unicode="&#xef;" horiz-adv-x="612" d="M51 1212q0 43 30 73t73 30q41 0 70.5 -30t29.5 -73q0 -41 -29.5 -70.5t-70.5 -29.5q-43 0 -73 29.5t-30 70.5zM92 0v12q23 0 37 14.5t14 36.5v246v393v244q0 23 -14 37t-37 14v13h230h170h28v-13q-23 0 -37 -14t-14 -37v-244v-393v-246q0 -23 14.5 -37t36.5 -14v-12h-28 h-170h-230zM358 1212q0 43 30 73t71 30q43 0 72.5 -30t29.5 -73q0 -41 -29.5 -70.5t-72.5 -29.5q-41 0 -71 29.5t-30 70.5z" />
<glyph unicode="&#xf0;" horiz-adv-x="1036" d="M51 506q0 104 32 196.5t92.5 160t147.5 107.5t195 40q41 0 82 -6q-35 61 -86 112l-94 -69l-12 16l92 67q-68 66 -130.5 104t-84.5 48h129q20 -10 63 -33.5t96 -62.5l132 96h34l-149 -108q63 -49 134 -116t128 -151t95 -184t38 -217q0 -104 -32.5 -196.5t-93 -161 t-146.5 -108.5t-195 -40t-195.5 40t-147 108.5t-92.5 160.5t-32 197zM373 373q0 -186 35.5 -271.5t109.5 -85.5t110 85t36 272v133v131q0 186 -36 271t-110 85t-109.5 -85t-35.5 -271v-131v-133z" />
<glyph unicode="&#xf1;" d="M51 0v12q23 0 37 14.5t14 36.5v246v637q0 23 -14 37t-37 14v13h230q59 0 92 -21.5t45 -70.5q70 43 146.5 67.5t146.5 24.5q51 0 98 -14.5t81 -46t54.5 -82t20.5 -122.5v-567v-115q0 -23 14 -37t37 -14v-12h-27h-172h-229v12q23 0 38 14.5t15 36.5v146v582 q0 72 -22.5 106.5t-56.5 42.5t-71.5 -4t-68.5 -31q6 -35 6 -76v-454v-66v-246q0 -23 14.5 -37t36.5 -14v-12h-28h-170h-230zM303 1143v31q0 57 40 97t97 40q39 0 68 -16.5t54.5 -35t52 -35t59.5 -16.5t55.5 22.5t22.5 55.5h12v-33q0 -57 -40 -97t-97 -40q-47 0 -80 16.5 t-57.5 36t-47 36t-49.5 16.5q-35 0 -57.5 -22.5t-22.5 -55.5h-10z" />
<glyph unicode="&#xf2;" horiz-adv-x="1036" d="M51 506q0 104 32 196.5t92.5 160t147 107.5t195.5 40t195 -40t146.5 -107.5t93 -160t32.5 -196.5t-32.5 -196.5t-93 -161t-146.5 -108.5t-195 -40t-195.5 40t-147 108.5t-92.5 160.5t-32 197zM336 1311q0 14 9 24.5t26 10.5h116q16 0 27 -13l178 -194q8 -12 8 -23 q0 -16 -10 -25.5t-24 -9.5q-10 0 -19 4l-297 197q-14 10 -14 29zM373 373q0 -186 35.5 -271.5t109.5 -85.5t110 85t36 272v133v131q0 186 -36 271t-110 85t-109.5 -85t-35.5 -271v-131v-133z" />
<glyph unicode="&#xf3;" horiz-adv-x="1036" d="M51 506q0 104 32 196.5t92.5 160t147 107.5t195.5 40t195 -40t146.5 -107.5t93 -160t32.5 -196.5t-32.5 -196.5t-93 -161t-146.5 -108.5t-195 -40t-195.5 40t-147 108.5t-92.5 160.5t-32 197zM336 1116q0 10 8 23l178 194q8 12 27 13h117q16 0 25 -10.5t9 -24.5 q0 -18 -14 -29l-297 -197q-8 -4 -18 -4q-14 0 -24.5 9.5t-10.5 25.5zM373 373q0 -186 35.5 -271.5t109.5 -85.5t110 85t36 272v133v131q0 186 -36 271t-110 85t-109.5 -85t-35.5 -271v-131v-133z" />
<glyph unicode="&#xf4;" horiz-adv-x="1036" d="M51 506q0 104 32 196.5t92.5 160t147 107.5t195.5 40t195 -40t146.5 -107.5t93 -160t32.5 -196.5t-32.5 -196.5t-93 -161t-146.5 -108.5t-195 -40t-195.5 40t-147 108.5t-92.5 160.5t-32 197zM305 1116q0 12 10 23l177 194q12 12 26 13q14 0 25 -13l178 -194 q10 -10 10 -23q0 -16 -10 -25.5t-25 -9.5q-8 0 -20 4l-158 107l-160 -107q-8 -4 -18 -4q-14 0 -24.5 9.5t-10.5 25.5zM373 373q0 -186 35.5 -271.5t109.5 -85.5t110 85t36 272v133v131q0 186 -36 271t-110 85t-109.5 -85t-35.5 -271v-131v-133z" />
<glyph unicode="&#xf5;" horiz-adv-x="1036" d="M51 506q0 104 32 196.5t92.5 160t147 107.5t195.5 40t195 -40t146.5 -107.5t93 -160t32.5 -196.5t-32.5 -196.5t-93 -161t-146.5 -108.5t-195 -40t-195.5 40t-147 108.5t-92.5 160.5t-32 197zM289 1143v31q0 57 40 97t97 40q37 0 65.5 -16.5t55 -35t52.5 -35t60 -16.5 q33 0 55.5 22.5t22.5 55.5h11v-33q0 -57 -40 -97t-98 -40q-47 0 -78.5 16.5t-57 36t-48.5 36t-49 16.5q-33 0 -55.5 -22.5t-22.5 -55.5h-10zM373 373q0 -186 35.5 -271.5t109.5 -85.5t110 85t36 272v133v131q0 186 -36 271t-110 85t-109.5 -85t-35.5 -271v-131v-133z" />
<glyph unicode="&#xf6;" horiz-adv-x="1036" d="M51 506q0 -104 32 -196.5t92.5 -161t147.5 -108.5t195 -40q109 0 195 40t146.5 108.5t93 160.5t32.5 197q0 104 -32.5 196.5t-93 160t-146.5 107.5t-195 40t-195.5 -40t-147 -107.5t-92.5 -160t-32 -196.5zM262 1212q0 43 31 73t72 30t71.5 -30t30.5 -73 q0 -41 -30.5 -70.5t-71.5 -29.5t-72 29.5t-31 70.5zM373 373v133v131q0 186 35.5 271t109.5 85t110 -85t36 -271v-131v-133q0 -186 -36 -271.5t-110 -85.5t-109.5 85t-35.5 272zM569 1212q0 43 30 73t73 30q41 0 71.5 -30t30.5 -73q0 -41 -30.5 -70.5t-71.5 -29.5 q-43 0 -73 29.5t-30 70.5z" />
<glyph unicode="&#xf7;" horiz-adv-x="1030" d="M61 500v14h908v-14h-908zM444 264q0 29 21.5 50.5t50.5 21.5t49.5 -21.5t20.5 -50.5t-20.5 -49t-49.5 -20t-50.5 20.5t-21.5 48.5zM444 745q0 29 21.5 49.5t50.5 20.5t49.5 -20.5t20.5 -49.5t-20.5 -49t-49.5 -20t-50.5 20.5t-21.5 48.5z" />
<glyph unicode="&#xf8;" horiz-adv-x="1036" d="M51 504q0 104 32 196.5t92.5 161t147.5 108.5t195 40q96 0 174 -31l121 287h16l-122 -293q133 -55 205.5 -182t72.5 -287q0 -104 -32.5 -196.5t-93 -160t-146.5 -107.5t-195 -40q-115 0 -207 43l-88 -211h-18l94 219q-119 61 -183.5 182t-64.5 271zM373 371q0 -76 6 -133 l264 624q-33 131 -125 131q-74 0 -109.5 -85t-35.5 -271v-133v-133zM381 209q27 -195 137 -195q74 0 110 85t36 272v133v133q0 117 -17 199z" />
<glyph unicode="&#xf9;" d="M51 997v13h230q82 0 114.5 -41t32.5 -140v-211v-120v-277q0 -72 22.5 -106.5t56.5 -43t71.5 4t68.5 30.5q-6 31 -6 74v766q0 23 -15.5 37t-37.5 14v13h229q84 0 116 -41t32 -140v-211v-227v-328q0 -23 14 -37t37 -14v-12h-230q-59 0 -91.5 21.5t-45.5 70.5 q-68 -41 -145.5 -66.5t-145.5 -25.5q-53 0 -99 14.5t-81 46t-55.5 83t-20.5 122.5v262v90v328q0 23 -14 37t-37 14zM350 1311q0 14 10.5 24.5t24.5 10.5h119q14 0 24 -13l179 -194q10 -10 10 -23q0 -16 -10.5 -25.5t-24.5 -9.5q-8 0 -20 4l-295 197q-16 10 -17 29z" />
<glyph unicode="&#xfa;" d="M51 997v13h230q82 0 114.5 -41t32.5 -140v-211v-120v-277q0 -72 22.5 -106.5t56.5 -43t71.5 4t68.5 30.5q-6 31 -6 74v766q0 23 -15.5 37t-37.5 14v13h229q84 0 116 -41t32 -140v-211v-227v-328q0 -23 14 -37t37 -14v-12h-230q-59 0 -91.5 21.5t-45.5 70.5 q-68 -41 -145.5 -66.5t-145.5 -25.5q-53 0 -99 14.5t-81 46t-55.5 83t-20.5 122.5v262v90v328q0 23 -14 37t-37 14zM350 1116q0 12 10 23l179 194q8 12 24 13h119q14 0 24.5 -10.5t10.5 -24.5q0 -18 -17 -29l-294 -197q-12 -4 -21 -4q-14 0 -24.5 9.5t-10.5 25.5z" />
<glyph unicode="&#xfb;" d="M51 997v13h230q82 0 114.5 -41t32.5 -140v-211v-120v-277q0 -72 22.5 -106.5t56.5 -43t71.5 4t68.5 30.5q-6 31 -6 74v766q0 23 -15.5 37t-37.5 14v13h229q84 0 116 -41t32 -140v-211v-227v-328q0 -23 14 -37t37 -14v-12h-230q-59 0 -91.5 21.5t-45.5 70.5 q-68 -41 -145.5 -66.5t-145.5 -25.5q-53 0 -99 14.5t-81 46t-55.5 83t-20.5 122.5v262v90v328q0 23 -14 37t-37 14zM322 1116q0 14 8 23l178 194q8 12 24 13q16 0 27 -13l178 -194q8 -12 8 -23q0 -35 -34 -35q-6 0 -19 4l-160 107l-157 -107q-12 -4 -19 -4q-35 0 -34 35z " />
<glyph unicode="&#xfc;" d="M51 997q23 0 37 -14t14 -37v-328v-90v-262q0 -72 20.5 -123t55.5 -82.5t81 -46t99 -14.5q68 0 146 25.5t145 66.5q12 -49 45 -70.5t92 -21.5h230v12q-23 0 -37 14t-14 37v328v227v211q0 98 -32 139.5t-116 41.5h-229v-13q23 0 38 -14t15 -37v-766q0 -43 6 -74 q-31 -18 -68.5 -30.5t-71.5 -4t-56.5 43.5t-22.5 106v277v120v211q0 98 -33 139.5t-114 41.5h-230v-13zM279 1212q0 43 29.5 73t72.5 30q41 0 70.5 -30t29.5 -73q0 -41 -29.5 -70.5t-70.5 -29.5q-43 0 -72.5 29.5t-29.5 70.5zM586 1212q0 43 29.5 73t70.5 30q43 0 72.5 -30 t29.5 -73q0 -41 -29.5 -70.5t-72.5 -29.5q-41 0 -70.5 29.5t-29.5 70.5z" />
<glyph unicode="&#xfd;" horiz-adv-x="1312" d="M51 -248q0 66 47 114t115 48t115 -48t47 -114q0 -78 -53 -121q-8 -8 -14.5 -14t-10.5 -14q-18 -25 -20.5 -49.5t6 -44t26 -33t37.5 -13.5q29 0 55.5 15.5t48 37t38 47t26.5 48.5l172 403l-407 951q-18 35 -52 34v11h406v-11q-33 0 -33 -32q0 -10 2 -15l244 -567l182 424 q12 25 12 53q0 57 -39.5 97t-97.5 40v11h359v-11q-72 0 -125.5 -46t-81.5 -109l-531 -1237q-31 -72 -87 -117t-134 -45q-53 0 -98 24.5t-80 66.5t-54.5 97.5t-19.5 118.5zM475 1331q0 14 9.5 24.5t25.5 10.5h117q16 0 26 -12l178 -195q8 -12 9 -22q0 -16 -10.5 -25.5 t-24.5 -9.5q-10 0 -19 4l-297 197q-14 10 -14 28z" />
<glyph unicode="&#xfe;" horiz-adv-x="1132" d="M51 0v12q23 0 37 14.5t14 36.5v246v815v246q0 23 -14 37t-37 14v13h230h170h28v-13q-23 0 -37 -14t-14 -37v-246v-8q96 62 227 62q98 0 177 -36t134.5 -98.5t85 -146.5t29.5 -180t-29.5 -180t-85 -146.5t-134 -98.5t-177.5 -36q-131 0 -227 61v-8v-246q0 -23 14.5 -37 t36.5 -14v-12h-28h-170h-230zM428 336q47 -31 104.5 -48.5t122.5 -17.5q66 0 98.5 77t32.5 249v121v121q0 170 -32.5 247.5t-98.5 77.5t-123 -17.5t-104 -47.5v-762z" />
<glyph unicode="&#xff;" horiz-adv-x="1312" d="M51 -248q0 66 47 114t115 48t115 -48t47 -114q0 -78 -53 -121q-8 -8 -14.5 -14t-10.5 -14q-18 -25 -20.5 -49.5t6 -44t26 -33t37.5 -13.5q29 0 55.5 15.5t48 37t38 47t26.5 48.5l172 403l-407 951q-18 35 -52 34v11h406v-11q-33 0 -33 -32q0 -10 2 -15l244 -567l182 424 q12 25 12 53q0 57 -39.5 97t-97.5 40v11h359v-11q-72 0 -125.5 -46t-81.5 -109l-531 -1237q-31 -72 -87 -117t-134 -45q-53 0 -98 24.5t-80 66.5t-54.5 97.5t-19.5 118.5zM401 1212q0 43 31 73t72 30t71.5 -30t30.5 -73q0 -41 -30.5 -70.5t-71.5 -29.5t-72 29.5t-31 70.5z M709 1212q0 43 29.5 73t72.5 30q41 0 71.5 -30t30.5 -73q0 -41 -30.5 -70.5t-71.5 -29.5q-43 0 -72.5 29.5t-29.5 70.5z" />
<glyph unicode="&#x152;" horiz-adv-x="1816" d="M61 717q0 150 45.5 279.5t131.5 227t208.5 154t276.5 56.5h731h59h242v-256h-12q0 51 -19.5 95t-52.5 76.5t-77 52t-93 19.5h-125q-23 0 -37 -14t-14 -37v-188v-64v-215v-182h66q41 0 77.5 15.5t63.5 43t42 63.5t15 77h10v-408h-10q0 84 -57 141.5t-141 57.5h-66v-396 v-129v-18v-105q0 -23 14.5 -37t36.5 -14h49h76q49 0 93 19.5t77 52.5t52.5 77t19.5 93h12v-254h-706h-326q-154 0 -276.5 56.5t-208.5 153.5t-131.5 227t-45.5 280zM446 487q0 -145 21.5 -236t58.5 -144.5t87.5 -73t109.5 -19.5t110.5 19.5t88 73t58 144.5t21.5 236v230v229 q0 143 -21.5 235.5t-58 145.5t-88 72.5t-110.5 19.5t-109.5 -19.5t-87.5 -72.5t-58.5 -145t-21.5 -236v-229v-230z" />
<glyph unicode="&#x153;" horiz-adv-x="1609" d="M51 506q0 104 32 196.5t92.5 160t147.5 107.5t195 40q94 0 170 -29t135 -82q59 53 136 82t171 29q121 0 213.5 -48.5t153.5 -130.5q43 -57 54.5 -115.5t-1 -106.5t-44 -78.5t-76.5 -30.5h-445v-127q0 -104 11.5 -173t33 -111t55 -59.5t80.5 -17.5q6 0 12.5 1t10.5 1 q41 4 70.5 21.5t35.5 44.5q6 29 -11 48t-34 36q-49 49 -49 115q0 68 48 115.5t114 47.5q68 0 116 -48t48 -115q0 -57 -32 -108.5t-85 -89.5t-125 -59.5t-154 -21.5q-94 0 -170.5 28.5t-136.5 82.5q-59 -53 -135 -82t-170 -29q-109 0 -195.5 40t-147 108.5t-92.5 160.5 t-32 197zM373 373q0 -186 35.5 -271.5t109.5 -85.5t110 85t36 272v133v131q0 186 -36 271t-110 85t-109.5 -85t-35.5 -271v-131v-133zM985 510h199q43 0 74.5 48t31.5 147q0 111 -35.5 183.5t-83.5 96.5q-4 2 -14 6t-27 4q-16 0 -27.5 -4t-15.5 -6q-53 -29 -77.5 -108.5 t-24.5 -239.5v-127z" />
<glyph unicode="&#x178;" horiz-adv-x="1374" d="M61 1421q29 0 41 -20l410 -703v-635q0 -23 -14.5 -37t-36.5 -14v-12h229h170h29v12q-23 0 -37 14.5t-14 36.5v246v500l286 491q31 51 79 86t110 35v13h-326v-13q47 0 80 -32.5t33 -79.5q0 -29 -17 -58l-260 -442l-334 573q-4 4 -4 13q0 27 25 26v13h-291h-129h-29v-13z M459 1638q0 43 29.5 73t72.5 30q41 0 71 -30t30 -73q0 -41 -30 -70.5t-71 -29.5q-43 0 -72.5 29.5t-29.5 70.5zM766 1638q0 43 29.5 73t70.5 30q43 0 73 -30t30 -73q0 -41 -30 -70.5t-73 -29.5q-41 0 -70.5 29.5t-29.5 70.5z" />
<glyph unicode="&#x2c6;" horiz-adv-x="528" d="M51 1116q0 12 10 23l177 194q8 12 26 13q14 0 25 -13l178 -194q10 -10 10 -23q0 -16 -10 -25.5t-25 -9.5q-8 0 -20 4l-158 107l-160 -107q-8 -4 -18 -4q-14 0 -24.5 9.5t-10.5 25.5z" />
<glyph unicode="&#x2dc;" horiz-adv-x="563" d="M51 1143v31q0 57 40 97t97 40q39 0 68 -16.5t54.5 -35t52 -35t59.5 -16.5t56.5 22.5t23.5 55.5h10v-33q0 -57 -40 -97t-97 -40q-47 0 -80 16.5t-57.5 36t-47 36t-49.5 16.5q-33 0 -56.5 -22.5t-23.5 -55.5h-10z" />
<glyph unicode="&#x2000;" horiz-adv-x="886" />
<glyph unicode="&#x2001;" horiz-adv-x="1772" />
<glyph unicode="&#x2002;" horiz-adv-x="886" />
<glyph unicode="&#x2003;" horiz-adv-x="1772" />
<glyph unicode="&#x2004;" horiz-adv-x="590" />
<glyph unicode="&#x2005;" horiz-adv-x="443" />
<glyph unicode="&#x2006;" horiz-adv-x="295" />
<glyph unicode="&#x2007;" horiz-adv-x="295" />
<glyph unicode="&#x2008;" horiz-adv-x="221" />
<glyph unicode="&#x2009;" horiz-adv-x="354" />
<glyph unicode="&#x200a;" horiz-adv-x="98" />
<glyph unicode="&#x2010;" horiz-adv-x="704" d="M61 498v14h582v-14h-582z" />
<glyph unicode="&#x2011;" horiz-adv-x="704" d="M61 498v14h582v-14h-582z" />
<glyph unicode="&#x2012;" horiz-adv-x="704" d="M61 498v14h582v-14h-582z" />
<glyph unicode="&#x2013;" horiz-adv-x="704" d="M61 498v14h582v-14h-582z" />
<glyph unicode="&#x2014;" horiz-adv-x="909" d="M61 498v14h787v-14h-787z" />
<glyph unicode="&#x2018;" horiz-adv-x="446" d="M61 1354q0 66 47.5 114t114.5 48q68 0 115 -48.5t47 -113.5q0 -68 -47 -115t-115 -47q-23 -10 -24.5 -40t34.5 -73v-12q-29 18 -59.5 48t-55 68t-41 81t-16.5 90z" />
<glyph unicode="&#x2019;" horiz-adv-x="446" d="M61 1354q0 66 47.5 114t114.5 48q68 0 115 -48.5t47 -113.5q0 -47 -16.5 -90t-41 -81t-55 -68t-59.5 -48v12q37 43 35 73t-25 40q-68 0 -115 47t-47 115z" />
<glyph unicode="&#x201a;" horiz-adv-x="446" d="M61 162q0 68 47.5 115t114.5 47q68 0 115 -47.5t47 -114.5q0 -47 -16.5 -90t-41 -81t-55 -66.5t-59.5 -47.5v12q37 41 35 72t-25 39q-68 0 -115 47t-47 115z" />
<glyph unicode="&#x201c;" horiz-adv-x="864" d="M61 1354q0 66 47.5 114t114.5 48q68 0 115 -48.5t47 -113.5q0 -68 -47 -115t-115 -47q-23 -10 -24.5 -40t34.5 -73v-12q-29 18 -59.5 48t-55 68t-41 81t-16.5 90zM479 1354q0 66 47 114t115 48t115 -48.5t47 -113.5q0 -68 -47 -115t-115 -47q-23 -10 -25 -40t35 -73v-12 q-29 18 -59.5 48t-55 68t-41 81t-16.5 90z" />
<glyph unicode="&#x201d;" horiz-adv-x="864" d="M61 1354q0 66 47.5 114t114.5 48q68 0 115 -48.5t47 -113.5q0 -47 -16.5 -90t-41 -81t-55 -68t-59.5 -48v12q37 43 35 73t-25 40q-68 0 -115 47t-47 115zM479 1354q0 66 47 114t115 48t115 -48.5t47 -113.5q0 -47 -16.5 -90t-41 -81t-55.5 -68t-59 -48v12q37 43 35 73 t-25 40q-68 0 -115 47t-47 115z" />
<glyph unicode="&#x201e;" horiz-adv-x="864" d="M61 162q0 68 47.5 115t114.5 47q68 0 115 -47.5t47 -114.5q0 -47 -16.5 -90t-41 -81t-55 -66.5t-59.5 -47.5v12q37 41 35 72t-25 39q-68 0 -115 47t-47 115zM479 162q0 68 47 115t115 47t115 -47.5t47 -114.5q0 -47 -16.5 -90t-41 -81t-55.5 -66.5t-59 -47.5v12 q37 41 35 72t-25 39q-68 0 -115 47t-47 115z" />
<glyph unicode="&#x2022;" horiz-adv-x="612" d="M61 766q0 51 19.5 95t53.5 77t78 52.5t95 19.5t95 -19.5t77 -52.5t52.5 -77t19.5 -95t-19.5 -96t-52.5 -78t-77 -52.5t-95 -19.5t-95 19.5t-78 52.5t-53.5 78t-19.5 96z" />
<glyph unicode="&#x2026;" horiz-adv-x="1282" d="M61 162q0 68 47.5 115t114.5 47q68 0 115 -47t47 -115t-47 -115t-115 -47t-115 47t-47 115zM479 162q0 68 47 115t115 47t115 -47t47 -115t-47 -115t-115 -47t-115 47t-47 115zM897 162q0 68 47 115t115 47t115 -47t47 -115t-47.5 -115t-114.5 -47q-68 0 -115 47t-47 115 z" />
<glyph unicode="&#x202f;" horiz-adv-x="354" />
<glyph unicode="&#x2039;" horiz-adv-x="458" d="M61 694l316 316h20l-254 -316l254 -315h-20z" />
<glyph unicode="&#x203a;" horiz-adv-x="458" d="M61 379l254 315l-254 316h21l315 -316l-315 -315h-21z" />
<glyph unicode="&#x205f;" horiz-adv-x="443" />
<glyph unicode="&#x20ac;" horiz-adv-x="1554" d="M61 508l68 168h393h719l-67 -168h-668h-445zM61 758l68 168h401h816l-68 -168h-764h-453zM313 715q0 139 54 274q57 137 159 240q102 102 242 160q131 53 272 53q137 0 273 -53q98 -43 180 -107l-6 -12q-104 84 -230 123q-63 18 -125.5 27.5t-127.5 4.5 q-66 -4 -127.5 -18t-120.5 -39q-121 -51 -219 -149q-100 -100 -156 -230q-53 -131 -53 -274q0 -139 53 -271q55 -127 156 -231q51 -49 108 -88t123 -66q131 -53 272 -53q102 0 184.5 24.5t140.5 54.5t91 55.5t37 29.5v-18q-10 -8 -56 -42t-124 -65q-135 -53 -273 -53 q-141 0 -272 53t-242 158q-102 104 -159 239q-53 137 -54 273z" />
<glyph unicode="&#x2122;" horiz-adv-x="796" d="M61 1368v66h273v-66h-2q0 27 -18.5 44.5t-45.5 17.5h-16q-12 0 -12 -13v-6v-59v-56v-151v-15v-49q0 -14 12 -14v-2h-6h-19h-2h-55h-2h-16h-9v2q12 0 13 14v49v15v8v23v120v47v9v59v6q0 12 -13 13h-16q-27 0 -45.5 -17.5t-18.5 -44.5h-2zM338 1065v2q20 0 34.5 14.5 t14.5 34.5v303l-2 2q-2 8 -12 9v4h112v-4q-10 0 -10 -9v-4l82 -225l82 225v4q0 8 -10 9v4h47h8h45h6v-4q-12 0 -12 -13v-57v-6v-209v-64q0 -14 12 -14v-2h-6h-45h-57v2q12 0 12 14v64v209v57l-125 -346l-125 346v-295q0 -20 13.5 -34.5t33.5 -14.5v-2h-98z" />
<glyph unicode="&#x25fc;" horiz-adv-x="1013" d="M0 0v1014h1014v-1014h-1014z" />
<glyph unicode="&#xfb01;" horiz-adv-x="976" d="M51 0v12q23 0 37 14.5t14 36.5v58v868q0 211 110 328t308 117q78 0 143.5 -22.5t111.5 -60.5t71.5 -89.5t25.5 -108.5q0 -68 -47 -115t-114 -47q-68 0 -115 47t-47 115q0 35 12 63.5t35 51.5q16 16 34.5 35.5t12.5 48.5q-8 37 -39 51t-53 14q-76 0 -99.5 -73.5 t-23.5 -237.5v-309v-76h49h21h229h170h29v-12q-23 0 -38.5 -14.5t-15.5 -37.5v-73v-275v-246q0 -23 15.5 -37t38.5 -14v-12h-29h-170h-229v12q23 0 37 14.5t14 36.5v246v275v73q0 23 -14.5 37.5t-36.5 14.5h-70v-646q0 -23 14.5 -37t36.5 -14v-12h-395h-33z" />
<glyph unicode="&#xfb02;" horiz-adv-x="976" d="M51 0v12q23 0 37 14.5t14 36.5v58v868q0 211 110 328t308 117q78 0 143.5 -22.5t111.5 -60.5t71.5 -89.5t25.5 -108.5v-844v-86v-160q0 -23 15.5 -37t38.5 -14v-12h-29h-170h-229v12q23 0 37 14.5t14 36.5v148v98v275v125h-51h-70v-646q0 -23 14.5 -37t36.5 -14v-12h-395 h-33zM428 721h49h72v332q0 23 -14.5 38t-36.5 15v12h258h53q23 0 37 14.5t14 36.5q0 10 -2 31t-16 49q-35 72 -111 118t-178 54q-72 4 -98.5 -73.5t-26.5 -241.5v-309v-76z" />
</font>
</defs>
</svg>
